<?xml version="1.0" encoding="utf-8"?>
<!-- Generator: Adobe Illustrator 27.0.0, SVG Export Plug-In . SVG Version: 6.00 Build 0)  -->
<svg version="1.1" id="Layer_1" xmlns="http://www.w3.org/2000/svg" xmlns:xlink="http://www.w3.org/1999/xlink" x="0px" y="0px"
	 viewBox="0 0 805 534" style="enable-background:new 0 0 805 534;" xml:space="preserve">
<style type="text/css">
	@import url('https://fonts.googleapis.com/css?family=Roboto:300,400,700');;
	.st0{fill:#231F20;}
	.st1{font-family:'Roboto';font-weight: 300;}
	.st2{font-size:28px;}
	.st3{fill:#F0592C;}
	.st4{font-family:'Roboto';font-weight: 700;}
	.st5{font-size:52.4314px;}
	.st6{font-size:45.824px;}
	.st7{fill:none;}
	.st8{font-family:'Roboto';font-weight: 300;}
	.st9{font-size:32px;}
	.st10{font-size:31.4633px;}
	.st11{fill:none;stroke:#F0592C;stroke-width:3;stroke-linecap:round;stroke-miterlimit:10;}
	.st12{fill:none;stroke:#F0592C;stroke-linecap:round;stroke-miterlimit:10;}
</style>
<text transform="matrix(1 0 0 1.0001 2.1077 287.2553)" class="st0 st1 st2">Before 2017</text>
<g>
	<text transform="matrix(1 0 0 1.0001 25.4349 332.2456)" class="st3 st4 st5">33%</text>
</g>
<text transform="matrix(1 0 0 1.0001 257.4847 216.4487)" class="st0 st1 st2">2021</text>
<g>
	<text transform="matrix(1 0 0 1.0001 218.3353 261.4389)" class="st3 st4 st5">50%+</text>
</g>
<g>
	<text transform="matrix(1 0 0 1.0001 598.5356 261.5405)" class="st3 st4 st6">3.5 times</text>
</g>
<g>
	<rect x="0.47" y="50.21" class="st7" width="324.46" height="276"/>
	<text transform="matrix(1 0 0 1 0.4691 74.2163)"><tspan x="0" y="0" class="st0 st8 st9">Survival rate of Amur </tspan><tspan x="0" y="38.4" class="st0 st8 st9">tiger cubs</tspan></text>
</g>
<g>
	<rect x="392.21" y="50.21" class="st7" width="324.46" height="138"/>
	<text transform="matrix(1 0 0 1 392.2073 74.2163)"><tspan x="0" y="0" class="st0 st8 st9">Flourishing prey </tspan><tspan x="0" y="38.4" class="st0 st8 st9">species in the park</tspan><tspan x="0" y="76.8" class="st0 st8 st9">(2008 to 2021)</tspan></text>
</g>
<rect x="372.21" y="213.95" class="st7" width="194.16" height="272.86"/>
<text transform="matrix(1 0 0 1.0001 404.5286 237.2309)"><tspan x="0" y="0" class="st0 st1 st10">Increase of </tspan><tspan x="29.95" y="37.75" class="st0 st1 st10">sika deer</tspan><tspan x="0" y="96.47" class="st0 st1 st10">Increase of </tspan><tspan x="12.96" y="134.23" class="st0 st1 st10">wild boars</tspan><tspan x="0" y="192.95" class="st0 st1 st10">Increase of </tspan><tspan x="40.02" y="230.7" class="st0 st1 st10">roe deer</tspan></text>
<g>
	<g>
		<line class="st11" x1="11.97" y1="513.67" x2="96.41" y2="359.91"/>
		<g>
			<polygon class="st3" points="102.38,374.52 99.47,375.26 95.85,360.92 81.81,365.57 80.87,362.72 97.97,357.06 			"/>
		</g>
	</g>
</g>
<g>
	<g>
		<line class="st11" x1="11.97" y1="513.67" x2="281.1" y2="283.15"/>
		<g>
			<polygon class="st3" points="281.53,298.94 278.55,298.6 280.23,283.9 265.45,283.3 265.57,280.3 283.57,281.04 			"/>
		</g>
	</g>
</g>
<rect x="588.19" y="213.88" class="st12" width="216.09" height="71.82"/>
<g>
	<text transform="matrix(1 0 0 1.0001 617.644 362.395)" class="st3 st4 st6">2 times</text>
</g>
<rect x="588.19" y="314.74" class="st12" width="216.09" height="71.82"/>
<g>
	<text transform="matrix(1 0 0 1.0001 617.644 456.2124)" class="st3 st4 st6">2 times</text>
</g>
<rect x="588.19" y="408.56" class="st12" width="216.09" height="71.82"/>
</svg>
