<?xml version="1.0" encoding="utf-8"?>
<!-- Generator: Adobe Illustrator 27.0.0, SVG Export Plug-In . SVG Version: 6.00 Build 0)  -->
<svg version="1.1" id="Layer_1" xmlns="http://www.w3.org/2000/svg" xmlns:xlink="http://www.w3.org/1999/xlink" x="0px" y="0px"
	 viewBox="0 0 352 119" style="enable-background:new 0 0 352 119;" xml:space="preserve">
<style type="text/css">
	.st0{fill:#231F20;}
	.st1{font-family:'Roboto-Regular';}
	.st2{font-size:33.27px;}
</style>
<image style="overflow:visible;" width="320" height="213" xlink:href="DE5610A709556503.jpg"  transform="matrix(0.4744 0 0 0.4744 118.2237 3.1727)">
</image>
<path d="M247.6,48.12c-1.54,0-2.79,1.25-2.79,2.79v13.96c0,1.54,1.25,2.79,2.79,2.79c1.54,0,2.79-1.25,2.79-2.79V50.91
	C250.39,49.37,249.14,48.12,247.6,48.12z"/>
<path d="M261.57,36.69c-1.54,0-2.79,1.25-2.79,2.79v38.66c0,1.54,1.25,2.79,2.79,2.79s2.79-1.25,2.79-2.79V39.48
	C264.36,37.94,263.11,36.69,261.57,36.69z"/>
<path d="M275.52,17.41c-1.54,0-2.79,1.25-2.79,2.79v78.18c0,1.54,1.25,2.79,2.79,2.79s2.79-1.25,2.79-2.79V20.2
	C278.32,18.66,277.06,17.41,275.52,17.41z"/>
<path d="M289.48,31.37c-1.54,0-2.79,1.25-2.79,2.79v47.47c0,1.54,1.25,2.79,2.79,2.79s2.79-1.25,2.79-2.79V34.16
	C292.28,32.62,291.02,31.37,289.48,31.37z"/>
<path d="M331.64,24.61c-1.54,0-2.79,1.25-2.79,2.79v62.82c0,1.54,1.25,2.79,2.79,2.79s2.79-1.25,2.79-2.79V27.4
	C334.43,25.86,333.18,24.61,331.64,24.61z"/>
<path d="M345.44,37c-1.35,0-2.44,0.52-2.44,1.17v42.01c0,0.64,1.09,1.17,2.44,1.17c1.35,0,2.44-0.52,2.44-1.17V38.17
	C347.88,37.52,346.79,37,345.44,37z"/>
<path d="M303.44,50.91c-1.54,0-2.79,1.25-2.79,2.79v11.17c0,1.54,1.25,2.79,2.79,2.79s2.79-1.25,2.79-2.79V53.71
	C306.24,52.16,304.99,50.91,303.44,50.91z"/>
<path d="M317.14,44.65c-1.54,0-2.79,1.25-2.79,2.79v22.73c0,1.54,1.25,2.79,2.79,2.79c1.54,0,2.79-1.25,2.79-2.79V47.45
	C319.93,45.9,318.68,44.65,317.14,44.65z"/>
<g>
	<text transform="matrix(1 0 0 1 -0.4229 27.1089)"><tspan x="0" y="0" class="st0 st1 st2">Listen </tspan><tspan x="0" y="39.92" class="st0 st1 st2">the tiger </tspan><tspan x="0" y="79.85" class="st0 st1 st2">roar</tspan></text>
</g>
</svg>
