<?xml version="1.0" encoding="utf-8"?>
<!-- Generator: Adobe Illustrator 27.0.0, SVG Export Plug-In . SVG Version: 6.00 Build 0)  -->
<svg version="1.1" id="Layer_1" xmlns="http://www.w3.org/2000/svg" xmlns:xlink="http://www.w3.org/1999/xlink" x="0px" y="0px"
	 viewBox="0 0 518 214" style="enable-background:new 0 0 518 214;" xml:space="preserve">
<style type="text/css">
	@import url('https://fonts.googleapis.com/css?family=Roboto:300,400,700');;
	.st0{fill:#231F20;}
	.st1{font-family:'Roboto';font-weight: 700;}
	.st2{font-size:32px;}
</style>
<image style="overflow:visible;" width="320" height="213" xlink:href="DE5610A709556503.jpg"  transform="matrix(0.6678 0 0 0.6678 0 62.3907)">
</image>
<path d="M204.81,134.47c-1.52,0-2.76,1.23-2.76,2.76v13.79c0,1.52,1.23,2.76,2.76,2.76c1.52,0,2.76-1.23,2.76-2.76v-13.79
	C207.57,135.7,206.33,134.47,204.81,134.47z"/>
<path d="M218.61,123.18c-1.52,0-2.76,1.24-2.76,2.76v38.18c0,1.52,1.24,2.76,2.76,2.76c1.52,0,2.76-1.23,2.76-2.76v-38.18
	C221.37,124.41,220.13,123.18,218.61,123.18z"/>
<path d="M232.38,104.14c-1.52,0-2.76,1.23-2.76,2.76v77.21c0,1.52,1.24,2.76,2.76,2.76c1.52,0,2.76-1.24,2.76-2.76V106.9
	C235.14,105.37,233.91,104.14,232.38,104.14z"/>
<path d="M246.17,117.93c-1.52,0-2.76,1.23-2.76,2.76v46.87c0,1.52,1.24,2.76,2.76,2.76s2.76-1.24,2.76-2.76v-46.87
	C248.93,119.16,247.69,117.93,246.17,117.93z"/>
<path d="M287.8,111.25c-1.52,0-2.76,1.23-2.76,2.76v62.04c0,1.52,1.23,2.76,2.76,2.76s2.76-1.23,2.76-2.76v-62.04
	C290.56,112.48,289.32,111.25,287.8,111.25z"/>
<path d="M315.11,115.17c-1.52,0-2.76,1.24-2.76,2.76v55.15c0,1.52,1.24,2.76,2.76,2.76s2.76-1.23,2.76-2.76v-55.15
	C317.86,116.4,316.63,115.17,315.11,115.17z"/>
<path d="M328.89,128.95c-1.52,0-2.76,1.24-2.76,2.76v27.57c0,1.52,1.24,2.76,2.76,2.76s2.76-1.24,2.76-2.76v-27.57
	C331.65,130.19,330.41,128.95,328.89,128.95z"/>
<path d="M301.32,93.11c-1.52,0-2.76,1.24-2.76,2.76v99.26c0,1.52,1.23,2.76,2.76,2.76c1.52,0,2.76-1.23,2.76-2.76V95.87
	C304.08,94.34,302.84,93.11,301.32,93.11z"/>
<path d="M259.96,137.23c-1.52,0-2.76,1.24-2.76,2.76v11.03c0,1.52,1.23,2.76,2.76,2.76s2.76-1.23,2.76-2.76v-11.03
	C262.72,138.46,261.48,137.23,259.96,137.23z"/>
<path d="M342.68,136.3c-1.52,0-2.76,1.23-2.76,2.76v11.93c0,1.52,1.24,2.76,2.76,2.76s2.76-1.24,2.76-2.76v-11.93
	C345.44,137.54,344.2,136.3,342.68,136.3z"/>
<path d="M273.49,131.05c-1.52,0-2.76,1.23-2.76,2.76v22.45c0,1.52,1.23,2.76,2.76,2.76c1.52,0,2.76-1.24,2.76-2.76V133.8
	C276.24,132.28,275.01,131.05,273.49,131.05z"/>
<path d="M342.37,134.47c-1.52,0-2.76,1.23-2.76,2.76v13.79c0,1.52,1.23,2.76,2.76,2.76c1.52,0,2.76-1.23,2.76-2.76v-13.79
	C345.13,135.7,343.9,134.47,342.37,134.47z"/>
<path d="M356.17,136.64c-1.52,0-2.76,0.49-2.76,1.09v15.15c0,0.6,1.24,1.09,2.76,1.09s2.76-0.49,2.76-1.09v-15.15
	C358.93,137.13,357.69,136.64,356.17,136.64z"/>
<path d="M369.95,134.51c-1.52,0-2.76,0.33-2.76,0.73v20.51c0,0.4,1.24,0.73,2.76,0.73s2.76-0.33,2.76-0.73v-20.51
	C372.71,134.84,371.47,134.51,369.95,134.51z"/>
<path d="M383.73,129.17c-1.52,0-2.76,0.7-2.76,1.57v26.75c0,0.87,1.24,1.57,2.76,1.57c1.52,0,2.76-0.71,2.76-1.57v-26.75
	C386.49,129.87,385.26,129.17,383.73,129.17z"/>
<path d="M425.36,93.11c-1.52,0-2.76,1.9-2.76,4.24v95.36c0,2.34,1.23,4.24,2.76,4.24s2.76-1.9,2.76-4.24V97.35
	C428.12,95.01,426.89,93.11,425.36,93.11z"/>
<path d="M452.67,115.15c-1.52,0-2.76,1.24-2.76,2.76v55.19c0,1.53,1.24,2.76,2.76,2.76s2.76-1.23,2.76-2.76v-55.19
	C455.43,116.38,454.19,115.15,452.67,115.15z"/>
<path d="M466.46,128.95c-1.52,0-2.76,1.24-2.76,2.76v27.57c0,1.52,1.24,2.76,2.76,2.76c1.52,0,2.76-1.24,2.76-2.76v-27.57
	C469.21,130.19,467.98,128.95,466.46,128.95z"/>
<path d="M438.88,77.08c-1.52,0-2.76,1.61-2.76,3.6v129.63c0,1.99,1.23,3.6,2.76,3.6c1.52,0,2.76-1.61,2.76-3.6V80.68
	C441.64,78.7,440.4,77.08,438.88,77.08z"/>
<path d="M397.52,137.23c-1.52,0-2.76,1.24-2.76,2.76v11.03c0,1.52,1.23,2.76,2.76,2.76s2.76-1.23,2.76-2.76v-11.03
	C400.28,138.46,399.04,137.23,397.52,137.23z"/>
<path d="M480.24,136.3c-1.52,0-2.76,1.23-2.76,2.76v11.93c0,1.52,1.24,2.76,2.76,2.76s2.76-1.24,2.76-2.76v-11.93
	C483,137.54,481.76,136.3,480.24,136.3z"/>
<path d="M411.05,131.05c-1.52,0-2.76,1.23-2.76,2.76v22.45c0,1.52,1.23,2.76,2.76,2.76c1.52,0,2.76-1.24,2.76-2.76V133.8
	C413.81,132.28,412.57,131.05,411.05,131.05z"/>
<g>
	<text transform="matrix(1 0 0 1 51.8745 51.7554)" class="st0 st1 st2">Listen the tiger roar</text>
</g>
</svg>
