<?xml version="1.0" encoding="utf-8"?>
<!-- Generator: Adobe Illustrator 26.5.0, SVG Export Plug-In . SVG Version: 6.00 Build 0)  -->
<svg version="1.1" id="Layer_1" xmlns="http://www.w3.org/2000/svg" xmlns:xlink="http://www.w3.org/1999/xlink" x="0px" y="0px"
	 viewBox="0 0 1920 2346" style="enable-background:new 0 0 1920 2346;" xml:space="preserve">
<style type="text/css">
	@import url('https://fonts.googleapis.com/css?family=Roboto:300,400,700');;
	.st0{fill:#231F20;}
	.st1{font-family:'Roboto';font-weight: 300;}
	.st2{font-size:36.0036px;}
	.st3{fill:none;stroke:#000000;stroke-miterlimit:10;}
	.st4{fill:#F0592C;}
	.st5{font-family:'Roboto';font-weight: 700;}
	.st6{font-size:40.004px;}
	.st7{fill:#DFDFDF;stroke:#231F20;stroke-width:0.3;stroke-miterlimit:10;}
	.st8{fill:#8CA074;stroke:#231F20;stroke-width:0.3;stroke-miterlimit:10;}
	.st9{font-size:46.0046px;}
	.st10{fill:none;stroke:#000000;stroke-width:1.5;stroke-miterlimit:10;}
	.st11{font-size:32px;}
</style>
<image style="overflow:visible;enable-background:new    ;" width="1919" height="2346" xlink:href="A6053D7371796D81.jpg"  transform="matrix(1 0 0 1 1 0)">
</image>
<text transform="matrix(0.9999 0 0 1 220.0991 1113.8555)" class="st0 st1 st2">Infrared cameras</text>
<path class="st3" d="M467,1678.5h231.6c43.9,0,56.7,24,56.7,59v100.4"/>
<g>
	<text transform="matrix(0.9999 0 0 1 257.6309 1245.835)" class="st4 st5 st6">VOLUNTEERS</text>
</g>
<g>
	<text transform="matrix(0.9999 0 0 1 566.75 223.6406)" class="st4 st5 st6">FOREST</text>
</g>
<g>
	<path class="st7" d="M740.3,464.5v-50.3c-8.6,0-18,0.7-26.4,2.1l7.9,49.7C727.8,465,734,464.5,740.3,464.5z"/>
	<path class="st8" d="M740.3,414.1v50.3c0.1,0,0.1,0,0.2,0c65.9,0,119.4,53.5,119.4,119.4s-53.5,119.4-119.4,119.4
		s-119.4-53.5-119.4-119.4c0-59.6,43.6-108.9,100.7-117.9l-7.9-49.7c-83.7,13.3-142.6,82.2-142.6,166.9c0,93.3,75.7,169,169,169
		s169-75.7,169-169S833.7,414.1,740.3,414.1z"/>
</g>
<g>
	<text transform="matrix(0.9999 0 0 1 678.9229 538.1426)" class="st0 st5 st9">97.7%</text>
	<text transform="matrix(0.9999 0 0 1 686.7129 581.3369)" class="st0 st1 st2">Forest </text>
	<text transform="matrix(0.9999 0 0 1 669.4531 624.541)" class="st0 st1 st2">coverage</text>
	<text transform="matrix(0.9999 0 0 1 710.873 667.7354)" class="st0 st1 st2">rate</text>
</g>
<g>
	<g>
		<path class="st10" d="M184.3,1274.4V1860c0,86,69.7,155.7,155.7,155.7h291.2c86,0,155.7,69.7,155.7,155.7v147.8"/>
		<g>
			<polygon points="779.3,2317 786.8,2329.9 794.3,2317 			"/>
		</g>
	</g>
</g>
<text transform="matrix(0.9999 0 0 1 514.2314 2161.373)" class="st0 st1 st2">Images fron the </text>
<text transform="matrix(0.9999 0 0 1 507.2319 2204.5723)" class="st0 st1 st2">Northeast China </text>
<text transform="matrix(0.9999 0 0 1 476.0352 2247.7725)" class="st0 st1 st2">Tiger and Leopard </text>
<text transform="matrix(0.9999 0 0 1 550.4277 2290.9727)" class="st0 st1 st2">National Park</text>
<g>
	<text transform="matrix(1 0 0 1 562.5002 295.9661)" class="st0 st1 st11">The national park management bureau plants trees in </text>
	<text transform="matrix(1 0 0 1 562.5002 334.3661)" class="st0 st1 st11">the park to maintain a favorable habitat for tigers and </text>
	<text transform="matrix(1 0 0 1 562.5002 372.7661)" class="st0 st1 st11">other animals.</text>
</g>
<g>
	<text transform="matrix(1 0 0 1 257.5432 1298.4)" class="st0 st1 st11">More than 6,800 rangers </text>
	<text transform="matrix(1 0 0 1 257.5432 1336.8)" class="st0 st1 st11">patrol dense forests to </text>
	<text transform="matrix(1 0 0 1 257.5432 1375.2)" class="st0 st1 st11">protect the wildlife in the </text>
	<text transform="matrix(1 0 0 1 257.5432 1413.6001)" class="st0 st1 st11">national park.</text>
</g>
<g>
	<text transform="matrix(1 0 0 1 268.025 1608.7484)" class="st0 st1 st11">Each tiger has its own </text>
	<text transform="matrix(1 0 0 1 268.025 1647.1484)" class="st0 st1 st11">footprint, which serves </text>
	<text transform="matrix(1 0 0 1 268.025 1685.5483)" class="st0 st1 st11">to identify it.</text>
</g>
</svg>
