<?xml version="1.0" encoding="utf-8"?>
<!-- Generator: Adobe Illustrator 26.5.0, SVG Export Plug-In . SVG Version: 6.00 Build 0)  -->
<svg version="1.1" id="Layer_1" xmlns="http://www.w3.org/2000/svg" xmlns:xlink="http://www.w3.org/1999/xlink" x="0px" y="0px"
	 viewBox="0 0 799 2122" style="enable-background:new 0 0 799 2122;" xml:space="preserve">
<style type="text/css">
	.st0{fill:none;stroke:#000000;stroke-width:0.7681;stroke-miterlimit:10;}
	.st1{fill:none;}
	.st2{fill:#231F20;}
	.st3{font-family:'Roboto-Regular';}
	.st4{font-size:32px;}
	.st5{fill:#F0592C;}
	.st6{font-family:'Roboto-Bold';}
	.st7{font-size:40.004px;}
	.st8{font-size:34.0034px;}
	.st9{fill:#DFDFDF;stroke:#231F20;stroke-width:0.3;stroke-miterlimit:10;}
	.st10{fill:#8CA074;stroke:#231F20;stroke-width:0.3;stroke-miterlimit:10;}
	.st11{font-size:46.0046px;}
	.st12{font-size:36.0036px;}
	.st13{fill:none;stroke:#000000;stroke-width:1.5;stroke-miterlimit:10;}
</style>
<image style="overflow:visible;" width="791" height="1626" xlink:href="3860C564B65DF2A7.jpg"  transform="matrix(1 0 0 1 2 496)">
</image>
<line class="st0" x1="340.8" y1="1684.8" x2="340.8" y2="1736.4"/>
<g>
	<rect x="425.6" y="308.8" class="st1" width="367.3" height="235.1"/>
	<text transform="matrix(1 0 0 1 425.6254 332.7493)" class="st2 st3 st4">More than 6,800 rangers </text>
	<text transform="matrix(1 0 0 1 425.6254 371.1493)" class="st2 st3 st4">travel through dense </text>
	<text transform="matrix(1 0 0 1 425.6254 409.5493)" class="st2 st3 st4">forests to protect the </text>
	<text transform="matrix(1 0 0 1 425.6254 447.9492)" class="st2 st3 st4">wildlife in the national </text>
	<text transform="matrix(1 0 0 1 425.6254 486.3494)" class="st2 st3 st4">park.</text>
</g>
<g>
	<text transform="matrix(0.9999 0 0 1 422.1309 280.1494)" class="st5 st6 st7">VOLUNTEERS</text>
</g>
<g>
	<rect x="3" y="96.6" class="st1" width="796" height="132.8"/>
	<text transform="matrix(1 0 0 1 2.9548 120.6033)" class="st2 st3 st4">The national park management bureau plants trees in </text>
	<text transform="matrix(1 0 0 1 2.9548 159.0033)" class="st2 st3 st4">the park to maintain a favorable habitat for tigers and </text>
	<text transform="matrix(1 0 0 1 2.9548 197.4033)" class="st2 st3 st4">other animals</text>
</g>
<g>
	<text transform="matrix(0.9999 0 0 1 2.9546 50.9546)" class="st5 st6 st7">FOREST</text>
</g>
<g>
	<rect x="106.4" y="1183.4" class="st1" width="186.6" height="93.3"/>
	<text transform="matrix(0.9999 0 0 1 106.3696 1208.8828)" class="st2 st3 st8">Infrared </text>
	<text transform="matrix(0.9999 0 0 1 106.3696 1249.6777)" class="st2 st3 st8">cameras</text>
</g>
<g>
	<rect x="83.2" y="1755" class="st1" width="323.5" height="133.4"/>
	<text transform="matrix(1 0 0 1 83.2114 1778.9521)" class="st2 st3 st4">Each tiger has their </text>
	<text transform="matrix(1 0 0 1 83.2114 1817.3521)" class="st2 st3 st4">own footprint. It serve </text>
	<text transform="matrix(1 0 0 1 83.2114 1855.7521)" class="st2 st3 st4">to identify them.</text>
</g>
<g>
	<path class="st9" d="M196.9,293.3V243c-8.6,0-18,0.7-26.4,2.1l7.9,49.7C184.4,293.8,190.6,293.3,196.9,293.3z"/>
	<path class="st10" d="M196.9,243v50.3c0.1,0,0.1,0,0.2,0c65.9,0,119.4,53.5,119.4,119.4s-53.5,119.4-119.4,119.4
		S77.7,478.7,77.7,412.7c0-59.6,43.6-108.9,100.6-117.9l-7.9-49.7C86.8,258.3,27.9,327.2,27.9,412c0,93.4,75.7,169,169,169
		s169-75.7,169-169S290.3,243,196.9,243z"/>
</g>
<g>
	<text transform="matrix(0.9999 0 0 1 135.5757 367.0142)" class="st2 st6 st11">97.7%</text>
	<text transform="matrix(0.9999 0 0 1 143.3657 410.2085)" class="st2 st3 st12">Forest </text>
	<text transform="matrix(0.9999 0 0 1 135.1055 453.4126)" class="st2 st3 st12">covered</text>
	<text transform="matrix(0.9999 0 0 1 167.5259 496.6069)" class="st2 st3 st12">rate</text>
</g>
<g>
	<g>
		<path class="st13" d="M64.2,1208.9V1457c0,49.9,40.4,90.3,90.3,90.3h222.2c49.9,0,90.3,40.4,90.3,90.3v462.2"/>
		<g>
			<polygon points="459.5,2097.7 467,2110.6 474.5,2097.7 			"/>
		</g>
	</g>
</g>
<rect x="144.6" y="1942.5" class="st1" width="304.1" height="175.7"/>
<text transform="matrix(1 0 0 1 224.4075 1966.5419)"><tspan x="0" y="0" class="st2 st3 st4">Images fron the </tspan><tspan x="-6.2" y="38.4" class="st2 st3 st4">Northeast China </tspan><tspan x="-33.9" y="76.8" class="st2 st3 st4">Tiger and Leopard </tspan><tspan x="32.2" y="115.2" class="st2 st3 st4">National Park</tspan></text>
<rect x="-345.3" y="1429" class="st1" width="5.1" height="6.8"/>
</svg>
