<?xml version="1.0" encoding="utf-8"?>
<!-- Generator: Adobe Illustrator 27.0.0, SVG Export Plug-In . SVG Version: 6.00 Build 0)  -->
<svg version="1.1" id="Layer_1" xmlns="http://www.w3.org/2000/svg" xmlns:xlink="http://www.w3.org/1999/xlink" x="0px" y="0px"
	 viewBox="0 0 799 2122" style="enable-background:new 0 0 799 2122;" xml:space="preserve">
<style type="text/css">
	.st0{fill:none;stroke:#000000;stroke-miterlimit:10;}
	.st1{fill:none;}
	.st2{fill:#231F20;}
	.st3{font-family:'Roboto-Regular';}
	.st4{font-size:32px;}
	.st5{fill:#F0592C;}
	.st6{font-family:'Roboto-Bold';}
	.st7{font-size:40px;}
	.st8{font-size:34px;}
	.st9{fill:#DFDFDF;stroke:#231F20;stroke-width:0.3;stroke-miterlimit:10;}
	.st10{fill:#8CA074;stroke:#231F20;stroke-width:0.3;stroke-miterlimit:10;}
	.st11{font-size:46px;}
	.st12{font-size:36px;}
</style>
<image style="overflow:visible;" width="798" height="1581" xlink:href="3860C564B65DF2A4.jpg"  transform="matrix(1 0 0 1 -0.0455 519.3597)">
</image>
<line class="st0" x1="340.82" y1="1684.77" x2="340.82" y2="1772.36"/>
<g>
	<rect x="425.62" y="308.75" class="st1" width="367.28" height="235.06"/>
	<text transform="matrix(1 0 0 1 425.6254 332.7493)"><tspan x="0" y="0" class="st2 st3 st4">More than 6,800 rangers </tspan><tspan x="0" y="38.4" class="st2 st3 st4">travel through dense </tspan><tspan x="0" y="76.8" class="st2 st3 st4">forests to protect the </tspan><tspan x="0" y="115.2" class="st2 st3 st4">wildlife in the national </tspan><tspan x="0" y="153.6" class="st2 st3 st4">park.</tspan></text>
</g>
<g>
	<text transform="matrix(1 0 0 1.0001 422.1308 280.1497)" class="st5 st6 st7">VOLUNTEERS</text>
</g>
<g>
	<rect x="2.95" y="96.6" class="st1" width="796" height="132.76"/>
	<text transform="matrix(1 0 0 1 2.9548 120.6033)"><tspan x="0" y="0" class="st2 st3 st4">The national park management bureau plants trees in </tspan><tspan x="0" y="38.4" class="st2 st3 st4">the park to maintain a favorable habitat for tigers and </tspan><tspan x="0" y="76.8" class="st2 st3 st4">other animals</tspan></text>
</g>
<g>
	<text transform="matrix(1 0 0 1.0001 2.9546 50.9549)" class="st5 st6 st7">FOREST</text>
</g>
<g>
	<rect x="106.37" y="1183.38" class="st1" width="186.58" height="93.33"/>
	<text transform="matrix(1 0 0 1.0001 106.3696 1208.8835)"><tspan x="0" y="0" class="st2 st3 st8">Infrared </tspan><tspan x="0" y="40.79" class="st2 st3 st8">cameras</tspan></text>
</g>
<g>
	<rect x="83.21" y="1811.92" class="st1" width="323.55" height="133.44"/>
	<text transform="matrix(1 0 0 1 83.2114 1835.9163)"><tspan x="0" y="0" class="st2 st3 st4">Each tiger has their </tspan><tspan x="0" y="38.4" class="st2 st3 st4">own footprint. It serve </tspan><tspan x="0" y="76.8" class="st2 st3 st4">to identify them.</tspan></text>
</g>
<g>
	<path class="st9" d="M196.95,293.32v-50.33c-8.59,0-17.96,0.74-26.44,2.08l7.87,49.72C184.44,293.83,190.64,293.33,196.95,293.32z"
		/>
	<path class="st10" d="M196.95,242.99v50.33c0.06,0,0.11,0,0.17,0c65.94,0,119.39,53.45,119.39,119.39s-53.45,119.39-119.39,119.39
		c-65.94,0-119.39-53.45-119.39-119.39c0-59.56,43.62-108.93,100.65-117.92l-7.87-49.72C86.8,258.33,27.93,327.25,27.93,412.01
		c0,93.35,75.67,169.02,169.02,169.02s169.02-75.67,169.02-169.02S290.3,242.99,196.95,242.99z"/>
</g>
<g>
	<text transform="matrix(1 0 0 1.0001 135.5757 367.0144)"><tspan x="0" y="0" class="st2 st6 st11">97.7%</tspan><tspan x="7.79" y="43.19" class="st2 st3 st12">Forest </tspan><tspan x="-0.47" y="86.39" class="st2 st3 st12">covered</tspan><tspan x="31.95" y="129.58" class="st2 st3 st12">rate</tspan></text>
</g>
</svg>
