<?xml version="1.0" encoding="utf-8"?>
<!-- Generator: Adobe Illustrator 27.0.0, SVG Export Plug-In . SVG Version: 6.00 Build 0)  -->
<svg version="1.1" id="Layer_1" xmlns="http://www.w3.org/2000/svg" xmlns:xlink="http://www.w3.org/1999/xlink" x="0px" y="0px"
	 viewBox="0 0 1920 2346" style="enable-background:new 0 0 1920 2346;" xml:space="preserve">
<style type="text/css">
	.st0{fill:none;}
	.st1{fill:#231F20;}
	.st2{font-family:'Roboto-Regular';}
	.st3{font-size:36px;}
	.st4{fill:none;stroke:#000000;stroke-miterlimit:10;}
	.st5{font-size:32px;}
	.st6{fill:#F0592C;}
	.st7{font-family:'Roboto-Bold';}
	.st8{font-size:40px;}
	.st9{fill:#DFDFDF;stroke:#231F20;stroke-width:0.3;stroke-miterlimit:10;}
	.st10{fill:#8CA074;stroke:#231F20;stroke-width:0.3;stroke-miterlimit:10;}
	.st11{font-size:46px;}
</style>
<image style="overflow:visible;" width="1921" height="2360" xlink:href="A6053D7371796D86.jpg"  transform="matrix(1 0 0 1 0 -13)">
</image>
<rect x="220.1" y="1086.85" class="st0" width="275.07" height="93.33"/>
<text transform="matrix(1 0 0 1.0001 220.0991 1113.856)" class="st1 st2 st3">Infrared cameras</text>
<path class="st4" d="M523.84,1678.5h174.79c43.87,0,56.68,24,56.68,59v100.43"/>
<g>
	<rect x="261.12" y="1274.43" class="st0" width="367.28" height="235.06"/>
	<text transform="matrix(1 0 0 1 261.1254 1298.4351)"><tspan x="0" y="0" class="st1 st2 st5">More than 6,800 rangers </tspan><tspan x="0" y="38.4" class="st1 st2 st5">travel through dense </tspan><tspan x="0" y="76.8" class="st1 st2 st5">forests to protect the </tspan><tspan x="0" y="115.2" class="st1 st2 st5">wildlife in the national </tspan><tspan x="0" y="153.6" class="st1 st2 st5">park.</tspan></text>
</g>
<g>
	<text transform="matrix(1 0 0 1.0001 257.6308 1245.8354)" class="st6 st7 st8">VOLUNTEERS</text>
</g>
<g>
	<rect x="566.75" y="269.29" class="st0" width="780.7" height="406.76"/>
	<text transform="matrix(1 0 0 1 566.7507 293.2896)"><tspan x="0" y="0" class="st1 st2 st5">The national park management bureau plants trees in </tspan><tspan x="0" y="38.4" class="st1 st2 st5">the park to maintain a favorable habitat for tigers and </tspan><tspan x="0" y="76.8" class="st1 st2 st5">other animals</tspan></text>
</g>
<g>
	<text transform="matrix(1 0 0 1.0001 566.7505 223.6407)" class="st6 st7 st8">FOREST</text>
</g>
<g>
	<g>
	</g>
	<g>
	</g>
</g>
<g>
	<path class="st9" d="M740.3,464.45v-50.33c-8.59,0-17.96,0.74-26.44,2.08l7.87,49.72C727.79,464.96,733.99,464.46,740.3,464.45z"/>
	<path class="st10" d="M740.3,414.12v50.33c0.06,0,0.11,0,0.17,0c65.94,0,119.39,53.45,119.39,119.39s-53.45,119.39-119.39,119.39
		s-119.39-53.45-119.39-119.39c0-59.56,43.62-108.93,100.65-117.92l-7.87-49.72c-83.72,13.26-142.58,82.18-142.58,166.94
		c0,93.35,75.67,169.02,169.02,169.02s169.02-75.67,169.02-169.02S833.65,414.12,740.3,414.12z"/>
</g>
<g>
	<text transform="matrix(1 0 0 1.0001 678.9227 538.1431)"><tspan x="0" y="0" class="st1 st7 st11">97.7%</tspan><tspan x="7.79" y="43.19" class="st1 st2 st3">Forest </tspan><tspan x="-0.47" y="86.39" class="st1 st2 st3">covered</tspan><tspan x="31.95" y="129.58" class="st1 st2 st3">rate</tspan></text>
</g>
<g>
	<rect x="257.71" y="1585.6" class="st0" width="323.55" height="383.32"/>
	<text transform="matrix(1 0 0 1 257.7104 1609.6021)"><tspan x="0" y="0" class="st1 st2 st5">Each tiger has their </tspan><tspan x="0" y="38.4" class="st1 st2 st5">own footprint. It serve </tspan><tspan x="0" y="76.8" class="st1 st2 st5">to identify them.</tspan></text>
</g>
</svg>
