<?xml version="1.0" encoding="utf-8"?>
<!-- Generator: Adobe Illustrator 26.5.0, SVG Export Plug-In . SVG Version: 6.00 Build 0)  -->
<svg version="1.1" id="Layer_1" xmlns="http://www.w3.org/2000/svg" xmlns:xlink="http://www.w3.org/1999/xlink" x="0px" y="0px"
	 viewBox="0 0 800 685" style="enable-background:new 0 0 800 685;" xml:space="preserve">
<style type="text/css">
	.st0{font-family:'Roboto-Bold';}
	.st1{font-size:40.004px;}
	.st2{fill:#231F20;}
	.st3{font-family:'Roboto-Regular';}
	.st4{font-size:28.0028px;}
	.st5{fill:none;stroke:#000000;stroke-width:0.3;stroke-miterlimit:10;}
	.st6{fill:none;stroke:#C94F29;stroke-width:5;stroke-linecap:round;stroke-miterlimit:10;}
	.st7{fill:#CF4A30;}
	.st8{font-size:36.0036px;}
</style>
<g>
	<text transform="matrix(0.9999 0 0 1 -1.0908 59.147)" class="st0 st1">Tiger population form 1930</text>
</g>
<g>
	<text transform="matrix(0.9999 0 0 1 9.9189 661.9043)" class="st2 st3 st4">1930</text>
	<text transform="matrix(0.9999 0 0 1 111.8545 658.9043)" class="st2 st3 st4">1957</text>
	<text transform="matrix(0.9999 0 0 1 213.79 658.9043)" class="st2 st3 st4">1974</text>
	<text transform="matrix(0.9999 0 0 1 315.7256 658.9043)" class="st2 st3 st4">1985</text>
	<text transform="matrix(0.9999 0 0 1 417.6611 658.9043)" class="st2 st3 st4">1999</text>
	<text transform="matrix(0.9999 0 0 1 519.5986 658.9043)" class="st2 st3 st4">2013</text>
	<text transform="matrix(0.9999 0 0 1 621.5342 658.9043)" class="st2 st3 st4">2017</text>
	<text transform="matrix(0.9999 0 0 1 723.4697 658.9043)" class="st2 st3 st4">2021</text>
	<g>
		<line class="st5" x1="-6.9" y1="627.6" x2="808.6" y2="627.6"/>
	</g>
	<g>
		<g>
			<g>
				<line class="st6" x1="146" y1="421.4" x2="44" y2="163.7"/>
				<line class="st6" x1="247.9" y1="473" x2="146" y2="421.4"/>
				<line class="st6" x1="349.9" y1="596.7" x2="247.9" y2="473"/>
				<line class="st6" x1="451.8" y1="613.2" x2="349.9" y2="596.7"/>
				<line class="st6" x1="553.8" y1="607" x2="451.8" y2="613.2"/>
				<line class="st6" x1="655.7" y1="599.8" x2="553.8" y2="607"/>
				<line class="st6" x1="757.6" y1="576" x2="655.7" y2="599.8"/>
			</g>
		</g>
	</g>
	<line class="st5" x1="757.6" y1="627.6" x2="757.6" y2="588"/>
	<line class="st5" x1="655.7" y1="627.6" x2="655.7" y2="588"/>
	<line class="st5" x1="553.8" y1="627.6" x2="553.8" y2="607"/>
	<line class="st5" x1="451.8" y1="627.6" x2="451.8" y2="613.2"/>
	<line class="st5" x1="349.9" y1="627.6" x2="349.9" y2="596.7"/>
	<line class="st5" x1="247.9" y1="627.6" x2="247.9" y2="485"/>
	<line class="st5" x1="146" y1="627.6" x2="146" y2="421.4"/>
	<line class="st5" x1="44" y1="630.6" x2="44" y2="166.7"/>
	<text transform="matrix(0.9999 0 0 1 14.6133 129.8145)" class="st7 st0 st8">450</text>
	<text transform="matrix(0.9999 0 0 1 225.3516 446.7305)" class="st7 st0 st8">150</text>
	<text transform="matrix(0.9999 0 0 1 529.9463 579.2461)" class="st7 st0 st8">20</text>
	<text transform="matrix(0.9999 0 0 1 733.2861 546.8926)" class="st7 st0 st8">50</text>
	<text transform="matrix(0.9999 0 0 1 334.9502 565.418)" class="st7 st0 st8">30</text>
	<text transform="matrix(0.9999 0 0 1 428.2959 589.3672)" class="st7 st0 st8">14</text>
	<text transform="matrix(0.9999 0 0 1 631.2783 572.9883)" class="st7 st0 st8">27</text>
	<g>
		<g>
			<circle class="st7" cx="44" cy="163.7" r="12"/>
		</g>
		<g>
			<circle class="st7" cx="146" cy="421.4" r="12"/>
		</g>
		<g>
			<circle class="st7" cx="247.9" cy="473" r="12"/>
		</g>
		<g>
			<circle class="st7" cx="349.9" cy="596.7" r="12"/>
		</g>
		<g>
			<circle class="st7" cx="451.8" cy="613.2" r="12"/>
		</g>
		<g>
			<circle class="st7" cx="553.8" cy="607" r="12"/>
		</g>
		<g>
			<circle class="st7" cx="655.7" cy="599.8" r="12"/>
		</g>
		<g>
			<circle class="st7" cx="757.6" cy="576" r="12"/>
		</g>
	</g>
	<text transform="matrix(0.9999 0 0 1 127.7129 380.793)" class="st7 st0 st8">200</text>
</g>
</svg>
