<?xml version="1.0" encoding="utf-8"?>
<!-- Generator: Adobe Illustrator 27.0.0, SVG Export Plug-In . SVG Version: 6.00 Build 0)  -->
<svg version="1.1" id="Layer_1" xmlns="http://www.w3.org/2000/svg" xmlns:xlink="http://www.w3.org/1999/xlink" x="0px" y="0px"
	 viewBox="0 0 800 685" style="enable-background:new 0 0 800 685;" xml:space="preserve">
<style type="text/css">
	.st0{fill:none;}
	.st1{font-family:'Roboto-Bold';}
	.st2{font-size:40px;}
	.st3{fill:#231F20;}
	.st4{font-family:'Roboto-Regular';}
	.st5{font-size:28px;}
	.st6{fill:none;stroke:#000000;stroke-width:0.3;stroke-miterlimit:10;}
	.st7{fill:none;stroke:#C94F29;stroke-width:5;stroke-linecap:round;stroke-miterlimit:10;}
	.st8{fill:#CF4A30;}
	.st9{font-size:36px;}
</style>
<g>
	<rect x="-1.09" y="29.15" class="st0" width="800.63" height="52.56"/>
	<text transform="matrix(1 0 0 1.0001 -1.0906 59.1468)" class="st1 st2">Tiger population form 1930</text>
</g>
<g>
	<text transform="matrix(1 0 0 1.0001 9.9191 661.9041)" class="st3 st4 st5">1930</text>
	<text transform="matrix(1 0 0 1.0001 111.8546 658.9041)" class="st3 st4 st5">1957</text>
	<text transform="matrix(1 0 0 1.0001 213.7902 658.9041)" class="st3 st4 st5">1974</text>
	<text transform="matrix(1 0 0 1.0001 315.7257 658.9041)" class="st3 st4 st5">1985</text>
	<text transform="matrix(1 0 0 1.0001 417.6613 658.9041)" class="st3 st4 st5">1999</text>
	<text transform="matrix(1 0 0 1.0001 519.5988 658.9041)" class="st3 st4 st5">2013</text>
	<text transform="matrix(1 0 0 1.0001 621.5343 658.9041)" class="st3 st4 st5">2017</text>
	<text transform="matrix(1 0 0 1.0001 723.4698 658.9041)" class="st3 st4 st5">2021</text>
	<g>
		<line class="st6" x1="-6.92" y1="627.59" x2="808.61" y2="627.59"/>
	</g>
	<g>
		<g>
			<g>
				<line class="st7" x1="145.99" y1="421.41" x2="44.05" y2="163.68"/>
				<line class="st7" x1="247.93" y1="472.95" x2="145.99" y2="421.41"/>
				<line class="st7" x1="349.88" y1="596.66" x2="247.93" y2="472.95"/>
				<line class="st7" x1="451.82" y1="613.16" x2="349.88" y2="596.66"/>
				<line class="st7" x1="553.76" y1="606.97" x2="451.82" y2="613.16"/>
				<line class="st7" x1="655.7" y1="599.75" x2="553.76" y2="606.97"/>
				<line class="st7" x1="757.64" y1="576.04" x2="655.7" y2="599.75"/>
			</g>
		</g>
	</g>
	<line class="st6" x1="757.64" y1="627.59" x2="757.64" y2="588.04"/>
	<line class="st6" x1="655.7" y1="627.59" x2="655.7" y2="588.04"/>
	<line class="st6" x1="553.76" y1="627.59" x2="553.76" y2="606.97"/>
	<line class="st6" x1="451.82" y1="627.59" x2="451.82" y2="613.16"/>
	<line class="st6" x1="349.88" y1="627.59" x2="349.88" y2="596.66"/>
	<line class="st6" x1="247.93" y1="627.59" x2="247.93" y2="484.95"/>
	<line class="st6" x1="145.99" y1="627.59" x2="145.99" y2="421.41"/>
	<line class="st6" x1="44.05" y1="630.59" x2="44.05" y2="166.68"/>
	<text transform="matrix(1 0 0 1.0001 14.6134 129.8142)" class="st8 st1 st9">450</text>
	<text transform="matrix(1 0 0 1.0001 225.3517 446.7302)" class="st8 st1 st9">150</text>
	<text transform="matrix(1 0 0 1.0001 529.9464 579.2458)" class="st8 st1 st9">20</text>
	<text transform="matrix(1 0 0 1.0001 733.2863 546.8923)" class="st8 st1 st9">50</text>
	<text transform="matrix(1 0 0 1.0001 334.9503 565.4177)" class="st8 st1 st9">30</text>
	<text transform="matrix(1 0 0 1.0001 428.296 589.3669)" class="st8 st1 st9">14</text>
	<text transform="matrix(1 0 0 1.0001 631.2784 572.988)" class="st8 st1 st9">27</text>
	<g>
		<g>
			<circle class="st8" cx="44.05" cy="163.68" r="12"/>
		</g>
		<g>
			<circle class="st8" cx="145.99" cy="421.41" r="12"/>
		</g>
		<g>
			<circle class="st8" cx="247.93" cy="472.95" r="12"/>
		</g>
		<g>
			<circle class="st8" cx="349.88" cy="596.66" r="12"/>
		</g>
		<g>
			<circle class="st8" cx="451.82" cy="613.16" r="12"/>
		</g>
		<g>
			<circle class="st8" cx="553.76" cy="606.97" r="12"/>
		</g>
		<g>
			<circle class="st8" cx="655.7" cy="599.75" r="12"/>
		</g>
		<g>
			<circle class="st8" cx="757.64" cy="576.04" r="12"/>
		</g>
	</g>
	<text transform="matrix(1 0 0 1.0001 127.713 380.7927)" class="st8 st1 st9">200</text>
</g>
</svg>
