<?xml version="1.0" encoding="utf-8"?>
<!-- Generator: Adobe Illustrator 24.3.2, SVG Export Plug-In . SVG Version: 6.00 Build 0)  -->
<svg version="1.1" id="Layer_1" xmlns="http://www.w3.org/2000/svg" xmlns:xlink="http://www.w3.org/1999/xlink" x="0px" y="0px"
	 viewBox="0 0 795 315.9" style="enable-background:new 0 0 795 315.9;" xml:space="preserve">
<style type="text/css">
	@import url('https://fonts.googleapis.com/css?family=Roboto:300,400,700');;
	.st0{fill:#231F20;}
	.st1{font-family:'Roboto';font-weight: 700;}
	.st2{font-size:48px;}
	.st3{fill:#B2ACA1;}
	.st4{fill:#F0592C;}
	.st5{font-family:'Roboto';font-weight: 700;}
	.st6{font-size:32px;}
	.st7{fill:#FFFFFF;}
	.st8{font-family:'Roboto';font-weight: 700;}
	.st9{font-size:24px;}
	.st10{fill:none;stroke:#231F20;stroke-miterlimit:10;}
</style>
<g>
	<text transform="matrix(1 0 0 1 197.8032 102.1142)" class="st0 st1 st2">EXTINCTION RISK</text>
</g>
<g>
	<path class="st3" d="M194.3,206.6h-56.8c-1.8,0-3.3-1.5-3.3-3.3v-43.4c0-1.8,1.5-3.3,3.3-3.3h56.8c1.8,0,3.3,1.5,3.3,3.3v43.4
		C197.5,205.1,196.1,206.6,194.3,206.6z"/>
	<path class="st3" d="M274.9,206.6H218c-1.8,0-3.3-1.5-3.3-3.3v-43.4c0-1.8,1.5-3.3,3.3-3.3h56.8c1.8,0,3.3,1.5,3.3,3.3v43.4
		C278.1,205.1,276.7,206.6,274.9,206.6z"/>
	<path class="st4" d="M355.4,206.6h-56.8c-1.8,0-3.3-1.5-3.3-3.3v-43.4c0-1.8,1.5-3.3,3.3-3.3h56.8c1.8,0,3.3,1.5,3.3,3.3v43.4
		C358.7,205.1,357.2,206.6,355.4,206.6z"/>
	<path class="st3" d="M436,206.6h-56.8c-1.8,0-3.3-1.5-3.3-3.3v-43.4c0-1.8,1.5-3.3,3.3-3.3H436c1.8,0,3.3,1.5,3.3,3.3v43.4
		C439.3,205.1,437.8,206.6,436,206.6z"/>
	<path class="st3" d="M516.6,206.6h-56.8c-1.8,0-3.3-1.5-3.3-3.3v-43.4c0-1.8,1.5-3.3,3.3-3.3h56.8c1.8,0,3.3,1.5,3.3,3.3v43.4
		C519.8,205.1,518.4,206.6,516.6,206.6z"/>
	<path class="st3" d="M597.2,206.6h-56.8c-1.8,0-3.3-1.5-3.3-3.3v-43.4c0-1.8,1.5-3.3,3.3-3.3h56.8c1.8,0,3.3,1.5,3.3,3.3v43.4
		C600.4,205.1,599,206.6,597.2,206.6z"/>
	<path class="st3" d="M677.8,206.6h-56.8c-1.8,0-3.3-1.5-3.3-3.3v-43.4c0-1.8,1.5-3.3,3.3-3.3h56.8c1.8,0,3.3,1.5,3.3,3.3v43.4
		C681,205.1,679.5,206.6,677.8,206.6z"/>
	<text transform="matrix(1 0 0 1 632.1934 195.0048)" class="st0 st5 st6">EX</text>
	<text transform="matrix(1 0 0 1 543.9609 195.0048)" class="st0 st5 st6">EW</text>
	<text transform="matrix(1 0 0 1 465.9883 195.0048)" class="st0 st5 st6">CR</text>
	<text transform="matrix(1 0 0 1 386.0854 195.0048)" class="st0 st5 st6">EN</text>
	<g>
		<text transform="matrix(1 0 0 1 305.1011 195.0048)" class="st7 st5 st6">VU</text>
	</g>
	<text transform="matrix(1 0 0 1 224.6128 195.0048)" class="st0 st5 st6">NT</text>
	<text transform="matrix(1 0 0 1 146.3901 195.0048)" class="st0 st5 st6">LC</text>
	<text transform="matrix(1 0 0 1 525.5127 137.7724)" class="st0 st8 st9">More risk</text>
	<g>
		<g>
			<line class="st10" x1="625.7" y1="130.7" x2="663.9" y2="130.7"/>
			<g>
				<path class="st0" d="M653.7,137.9c-0.2-0.3-0.1-0.8,0.2-1l9.7-6.2l-9.7-6.2c-0.4-0.2-0.5-0.7-0.2-1s0.7-0.4,1-0.2l10.7,6.8
					c0.2,0.1,0.3,0.4,0.3,0.6s-0.1,0.5-0.3,0.6l-10.7,6.8c-0.1,0.1-0.3,0.1-0.4,0.1C654,138.2,653.8,138.1,653.7,137.9z"/>
			</g>
		</g>
	</g>
	<text transform="matrix(1 0 0 1 189.3613 137.7724)" class="st0 st8 st9">Less risk</text>
	<text transform="matrix(1 0 0 1 96.1587 236.7548)" class="st0 st8 st9">Least concern</text>
	<text transform="matrix(1 0 0 1 617.3955 236.7548)" class="st0 st8 st9">Extinct</text>
	<g>
		<g>
			<line class="st10" x1="180.5" y1="130.7" x2="142.3" y2="130.7"/>
			<g>
				<path class="st0" d="M152.5,123.5c0.2,0.3,0.1,0.8-0.2,1l-9.7,6.2l9.7,6.2c0.4,0.2,0.5,0.7,0.2,1s-0.7,0.4-1,0.2l-10.7-6.8
					c-0.2-0.1-0.3-0.4-0.3-0.6s0.1-0.5,0.3-0.6l10.7-6.8c0.1-0.1,0.3-0.1,0.4-0.1C152.1,123.1,152.4,123.2,152.5,123.5z"/>
			</g>
		</g>
	</g>
	<g>
		<g>
			<text transform="matrix(1 0 0 1 249.0859 267.4794)" class="st0 st1 st6">Vulnerable</text>
		</g>
		<polygon class="st0" points="344.3,236.5 310.4,236.5 327.3,219.5 		"/>
	</g>
</g>
</svg>
