<?xml version="1.0" encoding="utf-8"?>
<!-- Generator: Adobe Illustrator 27.0.0, SVG Export Plug-In . SVG Version: 6.00 Build 0)  -->
<svg version="1.1" id="Layer_1" xmlns="http://www.w3.org/2000/svg" xmlns:xlink="http://www.w3.org/1999/xlink" x="0px" y="0px"
	 viewBox="0 0 748.5 267" style="enable-background:new 0 0 748.5 267;" xml:space="preserve">
<style type="text/css">
	.st0{fill:#231F20;}
	.st1{font-family:'Roboto-Bold';}
	.st2{font-size:41.35px;}
	.st3{fill:#A39C8C;}
	.st4{fill:#F0592C;}
	.st5{font-size:27.5666px;}
	.st6{fill:#FFFFFF;}
	.st7{font-family:'Roboto-Regular';}
	.st8{font-size:20.675px;}
	.st9{fill:none;stroke:#231F20;stroke-width:0.5;stroke-miterlimit:10;}
</style>
<g>
	<g>
		<text transform="matrix(1 0 0 1 201.7559 65.6333)" class="st0 st1 st2">EXTINCTION RISK</text>
	</g>
	<path class="st3" d="M184.26,155.61h-48.07c-1.8,0-3.25-1.46-3.25-3.25v-36.49c0-1.8,1.46-3.25,3.25-3.25h48.07
		c1.8,0,3.25,1.46,3.25,3.25v36.49C187.51,154.15,186.05,155.61,184.26,155.61z"/>
	<path class="st3" d="M253.67,155.61H205.6c-1.8,0-3.25-1.46-3.25-3.25v-36.49c0-1.8,1.46-3.25,3.25-3.25h48.07
		c1.8,0,3.25,1.46,3.25,3.25v36.49C256.92,154.15,255.47,155.61,253.67,155.61z"/>
	<path class="st3" d="M323.08,155.61h-48.07c-1.8,0-3.25-1.46-3.25-3.25v-36.49c0-1.8,1.46-3.25,3.25-3.25h48.07
		c1.8,0,3.25,1.46,3.25,3.25v36.49C326.33,154.15,324.88,155.61,323.08,155.61z"/>
	<path class="st4" d="M392.5,155.61h-48.07c-1.8,0-3.25-1.46-3.25-3.25v-36.49c0-1.8,1.46-3.25,3.25-3.25h48.07
		c1.8,0,3.25,1.46,3.25,3.25v36.49C395.75,154.15,394.29,155.61,392.5,155.61z"/>
	<path class="st3" d="M461.91,155.61h-48.07c-1.8,0-3.25-1.46-3.25-3.25v-36.49c0-1.8,1.46-3.25,3.25-3.25h48.07
		c1.8,0,3.25,1.46,3.25,3.25v36.49C465.16,154.15,463.7,155.61,461.91,155.61z"/>
	<path class="st3" d="M531.32,155.61h-48.07c-1.8,0-3.25-1.46-3.25-3.25v-36.49c0-1.8,1.46-3.25,3.25-3.25h48.07
		c1.8,0,3.25,1.46,3.25,3.25v36.49C534.57,154.15,533.12,155.61,531.32,155.61z"/>
	<path class="st3" d="M600.73,155.61h-48.07c-1.8,0-3.25-1.46-3.25-3.25v-36.49c0-1.8,1.46-3.25,3.25-3.25h48.07
		c1.8,0,3.25,1.46,3.25,3.25v36.49C603.98,154.15,602.53,155.61,600.73,155.61z"/>
	<text transform="matrix(1 0 0 1 561.9395 145.6548)" class="st0 st1 st5">EX</text>
	<text transform="matrix(1 0 0 1 485.9307 145.6548)" class="st0 st1 st5">EW</text>
	<text transform="matrix(1 0 0 1 418.7607 145.6548)" class="st0 st1 st5">CR</text>
	<g>
		<text transform="matrix(1 0 0 1 349.9272 145.6548)" class="st6 st1 st5">EN</text>
	</g>
	<g>
		<text transform="matrix(1 0 0 1 280.1626 145.6548)" class="st0 st1 st5">VU</text>
	</g>
	<text transform="matrix(1 0 0 1 210.8257 145.6548)" class="st0 st1 st5">NT</text>
	<text transform="matrix(1 0 0 1 143.4399 145.6548)" class="st0 st1 st5">LC</text>
	<text transform="matrix(1 0 0 1 468.292 96.3516)" class="st0 st7 st8">More risk</text>
	<g>
		<g>
			<line class="st9" x1="556.35" y1="90.22" x2="590.21" y2="90.22"/>
			<g>
				<path class="st0" d="M586.8,92.62c-0.07-0.12-0.04-0.27,0.08-0.35l3.23-2.05l-3.23-2.05c-0.12-0.07-0.15-0.23-0.08-0.35
					s0.23-0.15,0.35-0.08l3.56,2.27c0.07,0.05,0.12,0.13,0.12,0.21s-0.04,0.17-0.12,0.21l-3.56,2.27c-0.04,0.03-0.09,0.04-0.13,0.04
					C586.93,92.74,586.84,92.7,586.8,92.62z"/>
			</g>
		</g>
	</g>
	<text transform="matrix(1 0 0 1 180.4575 96.3516)" class="st0 st7 st8">Less risk</text>
	<text transform="matrix(1 0 0 1 132.936 181.6206)" class="st0 st7 st8">Least concern</text>
	<text transform="matrix(1 0 0 1 544.8535 181.6206)" class="st0 st7 st8">Extinct</text>
	<g>
		<g>
			<line class="st9" x1="172.81" y1="90.22" x2="138.94" y2="90.22"/>
			<g>
				<path class="st0" d="M142.36,87.82c0.07,0.12,0.04,0.27-0.08,0.35l-3.23,2.05l3.23,2.05c0.12,0.07,0.15,0.23,0.08,0.35
					s-0.23,0.15-0.35,0.08l-3.56-2.27c-0.07-0.05-0.12-0.13-0.12-0.21s0.04-0.17,0.12-0.21l3.56-2.27c0.04-0.03,0.09-0.04,0.13-0.04
					C142.23,87.71,142.31,87.75,142.36,87.82z"/>
			</g>
		</g>
	</g>
	<g>
		<g>
			<text transform="matrix(1 0 0 1 298.1055 208.0884)" class="st0 st7 st5">Endangered</text>
		</g>
		<polygon class="st0" points="385.68,181.36 356.44,181.36 371.06,166.74 		"/>
	</g>
</g>
</svg>
