<?xml version="1.0" encoding="utf-8"?>
<!-- Generator: Adobe Illustrator 27.0.0, SVG Export Plug-In . SVG Version: 6.00 Build 0)  -->
<svg version="1.1" id="Layer_1" xmlns="http://www.w3.org/2000/svg" xmlns:xlink="http://www.w3.org/1999/xlink" x="0px" y="0px"
	 viewBox="0 0 2504.23 760.77" style="enable-background:new 0 0 2504.23 760.77;" xml:space="preserve">
<style type="text/css">
	.st0{fill:#231F20;}
	.st1{fill:none;stroke:#231F20;stroke-width:3;stroke-miterlimit:10;}
	.st2{fill:#BBBDBF;}
	.st3{fill:none;stroke:#FFFFFF;stroke-width:0.5;stroke-miterlimit:10;}
	.st4{fill:#FFFFFF;}
	.st5{font-family:'Roboto-Bold';}
	.st6{font-size:36.2499px;}
	.st7{font-family:'Roboto-Regular';}
	.st8{font-size:32px;}
	.st9{fill:none;stroke:#26A9E0;stroke-miterlimit:10;}
	.st10{fill:#26A9E0;}
	.st11{font-size:38.0624px;}
	.st12{font-size:46px;}
</style>
<g>
	<polygon class="st0" points="841.85,707.58 980.86,707.58 962.99,614.54 859.72,614.54 	"/>
	<circle class="st1" cx="911.35" cy="615.08" r="25.51"/>
</g>
<g>
	<defs>
		<path id="SVGID_1_" d="M1618.89,175.21c29.54,6.45,60.2,7.29,90.2,3.5c13.89-1.76,27.65-4.49,41.53-6.36
			c15.53-2.09,25.21-3.95,41.04-1.1c33.19,5.98,65.66-0.27,97.57,12.96c15.66,6.49,32.59,9.94,49.54,10.08
			c7.51,0.06,14.42-0.8,19.08-6.7c1.25-1.58,2.29-3.38,3.89-4.61c1.6-1.23,4.03-1.72,5.59-0.44c1.32,1.08,1.57,2.98,1.69,4.68
			c0.84,12.32-0.1,24.75-2.77,36.8c-2.03,9.13,2.6,9.3,6.2,17.94c9.33,22.37,12.6,47.24,9.39,71.26c-2.01,15-9.92,50.09-32.75,39.57
			c-1.44,4.13-4.36,7.57-5.8,11.7c1.87,3.59,3.66,8.1,4.29,12.11s-0.22,8.46-3.16,11.24c-2.89,2.72-7.12,3.33-11.06,3.81
			c-14.4,1.75-30.88,2.87-41.48-7.03c-2.69-2.51-4.78-5.58-6.85-8.62c-1.21-1.77-2.41-3.54-3.62-5.31
			c-5.77,5.55-13.61,4.82-20.97,7.97c-8.36,3.58-14.11,11.26-19.47,18.61c-5.29,7.27-10.59,14.53-15.88,21.8
			c-6.26,8.59-12.61,17.35-15.98,27.42c-3.38,10.07-3.37,21.85,2.59,30.65c0.29,0.43,0.76,0.91,1.25,0.74
			c0.49-0.17-0.01-1.17-0.29-0.73c16.88,23.46,31.36,47.21,48.23,70.66c3.19,4.44,6.41,8.9,10.32,12.73
			c7.73,7.54,18.37,12.87,22.52,22.85c0.9,2.16,2.34,3.39,3.09,5.6c0.34,1,0.68,2.1,0.28,3.08c-0.31,0.78-1.03,1.31-1.48,2.02
			c-0.69,1.08-0.7,2.44-0.66,3.72c0.34,10.72,2.56,21.37,6.51,31.34c2.72,6.84,6.01,15.36,1.08,20.82
			c-0.88,0.98-1.98,1.76-2.71,2.86c-1.02,1.55-1.15,3.64-0.32,5.3c-1.15,0.39-2.3,0.79-3.45,1.18c-7.98,2.73-20.78,1.82-28.26-2.08
			s-14.66-9.26-23.07-9.79c-4.32-0.28-9.27,0.59-12.48-2.32c-1.42-1.28-2.21-3.1-2.95-4.86c-6.74-16.05-12.58-32.62-21.81-47.38
			c-16.6-26.54-45.91-47.44-73.16-61.91c-10.15,14.58-15.35,31.98-18.32,49.49c-1.69,9.92-0.85,20.27,2.42,29.79
			c12.81,2.69,23.67,9.81,29.56,21.5c1.6,3.18,2.83,6.85,1.83,10.26c-2.18,7.43-12.22,8.27-19.93,7.62
			c-21.45-1.81-43.37-3.73-63.04-12.49c-2.95-20.28,0.1-40.9,3.15-61.16c4.29-28.51,8.57-57.03,12.86-85.54
			c-8.79-2.31-14.65-12.8-12.58-21.65c-35.62-6.04-70.51-13.56-104.45-25.94c-33.94-12.38-66.25-31.07-89.99-58.31
			c-13.06,48.12-22.9,94.58-30.78,143.81c-0.99,6.15-1.92,12.53-0.29,18.55c3.15,11.64,15.32,19.91,16.18,31.94
			c1.07,14.96,26.86,10.45,38.51,19.88c4.45,3.6,6.94,11.45,2.11,14.52c-1.51,0.96-3.38,1.16-5.16,1.32
			c-17.66,1.65-35.33,3.29-52.99,4.94c-8.12,0.76-17.08,1.29-23.59-3.63c-4.14-3.13-6.56-7.98-8.83-12.64
			c-8.37-17.2-16.73-34.4-25.1-51.6c-2.92-6-5.89-12.17-6.48-18.82c-0.46-5.21,0.57-10.41,1.31-15.58
			c3.23-22.53-4.9-41.63-7.22-64.01c-5.28,15.91-21.6,24.87-32.99,37.17c-13.44,14.52-22.35,32.55-31.06,50.31
			c-2.01,4.09-4.03,8.91-2.05,13.01c1.25,2.58,3.82,4.21,5.84,6.23c5.15,5.16,6.69,13.58,3.69,20.23
			c-13.27-0.19-26.55-0.38-39.82-0.56c-4.1-0.06-8.56-0.25-11.66-2.93c-1.65-1.42-2.71-3.4-3.52-5.43
			c-5.25-13.17-0.66-27.99,3.94-41.41c1.27-3.7,2.54-7.4,3.81-11.1c8.49-24.75,16.98-49.49,25.47-74.24
			c1.71-0.12,3.41-0.24,5.12-0.36c2.76-7.41,10.87-10.05,15.44-16.51c4.75-6.7,3.61-15.74,5.08-23.82c0.77-4.24,2.29-8.3,3.52-12.43
			c8.52-28.7,2.45-59.45-3.66-88.76c-10.22,44.76-30.93,85.87-63.02,118.7c-6.94,7.1-14.6,13.97-23.98,17.23
			c-7.6,2.64-15.81,2.73-23.86,2.8c-19.63,0.16-34.71-1.58-52.29-11.39c-5.41-3.02-10.72-6.64-14.04-11.87
			c-5.32-8.41-4.49-19.16-3.48-29.06c0.82-7.97,1.83-16.44,6.89-22.64c5.06-6.21,15.7-8.51,20.93-2.45
			c5.84,6.76,1.06,17.55,4.02,25.98c2.25,6.39,8.79,10.48,15.45,11.71c6.66,1.23,13.5,0.11,20.18-1.01
			c9.45-1.59,18.9-3.18,28.35-4.77c15.96-27.54,26.24-58.35,30.03-89.96c3.11-25.97,11.06-47.99,22.89-71.31
			s28.58-44.65,50.62-58.73c40.9-26.13,88.5-30.81,136.98-28.47S1571.48,164.85,1618.89,175.21z"/>
	</defs>
	<use xlink:href="#SVGID_1_"  style="overflow:visible;fill:#F0D6AA;"/>
	<clipPath id="SVGID_00000097468032210955527190000016114395058055458700_">
		<use xlink:href="#SVGID_1_"  style="overflow:visible;"/>
	</clipPath>
</g>
<g>
	<path class="st2" d="M1350.06,199.64c13.21,20.62,26.54,41.51,34.42,64.69c7.88,23.19,9.89,49.28,0.39,71.86
		c-2.31,5.48-4.7,13.09,0.3,16.31c4.55-3.31,9.11-6.62,13.66-9.93c-0.34,6.6-5.48,30.58-1.29,35.64
		c5.39,6.52,10.07-9.03,11.55-13.69c5.64-17.76,5.51-37.74,3.58-56.09c-2.69-25.5-6.37-52.03-13.73-76.65
		c-8.69-29.02-17.24-57.72-27.11-86.15c-2.62-7.55-5.45-15.42-11.34-20.82c-7.43-6.82-18.11-8.31-27.85-10.93
		s-20.25-7.91-22.76-17.68c-2.14-8.32-2.67-18.95,3.24-25.19c2.07-2.19,4.6-3.91,6.57-6.19c1.97-2.28,3.34-5.08,3.92-8.03
		c0.74-3.76-1.62-9.07-5.27-7.91c1.83-11.63,3.41-24.49-3.04-34.34c-4.34-6.62-11.72-10.72-19.31-12.98
		c-3.15-0.94-6.42-1.61-9.71-1.55c-10.53,0.21-19.73,8.14-24.26,17.65c-4.53,9.51-5.19,20.36-5.16,30.9
		c-3.56,0.72-2.91,6.29-1.1,9.44c7.13,12.36,10.19,27.03,8.6,41.22c-13.95,7.82-27.9,15.64-41.84,23.46
		c-4.48,2.51-9.1,5.14-12.11,9.3c-3.11,4.28-4.15,9.67-5.11,14.87c-2.21,11.94-4.41,23.87-6.62,35.81
		c-2.02,10.92-3.47,24.49-7.64,34.78c-2.95,7.26-7.6,13.75-10.44,21.06c-2.98,7.66-3.87,15.96-4.74,24.13
		c-1.85,17.52-3.7,35.03-5.55,52.55c-1.24,11.73-5.09,24.97-2.83,36.55c2.26,11.58,11.05,22.78,22.81,23.82
		c1.9-2.11,0.37-5.62-1.92-7.3c-2.29-1.69-5.19-2.46-7.28-4.38c-4.92-4.52-3.05-12.53-0.8-18.82c1.04,6.08,7.5,10.66,13.58,9.64
		c-1.22-5.81-2.43-11.62-3.65-17.43c-2.13-10.18-4.27-20.58-3.07-30.91c2.1-17.97,13.9-33.13,20.51-49.97
		c7.91-20.16,9.05-44.08,24.16-59.6c1.2,17.76,2.53,35.4,8.71,52.09c5.94,16.03-1.93,33.36-4.29,50.29
		c-3.69,26.51-7.39,53.03-11.08,79.54c-4.8,34.43,0.42,69.14-2.8,103.46c-2.35,25.03-4.17,50.14-4.55,75.28
		c-0.33,21.69,3.49,47.5-8.33,67c-2.87,4.74-6.51,9.05-8.66,14.15s-2.52,11.47,0.94,15.79c2.93,3.66,7.97,5.04,12.66,4.89
		c9.04-0.28,17.75-5.75,21.91-13.79c1.11-2.14,1.97-4.51,3.76-6.12c3.33-3,8.93-2.52,11.97-5.82c3.15-3.43,1.86-8.8,1.13-13.4
		c-3.21-20.14,0.05-42.18,1.14-62.46c1.84-34.3,3.74-68.92,12.99-102c6.51-23.28,12.27-47.01,18.47-70.75
		c0.8-3.07,1.67-6.23,3.61-8.74c1.94-2.51,5.25-4.24,8.31-3.39c4.78,1.33,5.99,7.4,6.62,12.32c0.86,6.68,2.26,13.28,4.18,19.74
		c2.88,9.66,6.91,18.93,10.02,28.52c6.38,19.71,10.05,41.68,10.73,62.39c0.66,20.06,5.11,38.43,9.35,58.12
		c3.61,16.78,3.5,33.52,5.61,50.32c0.81,6.44,1.63,12.92,3.64,19.09c2.7,8.27,7.44,15.69,12.14,23.02
		c6.99,10.9,26.72,20.74,34.83,3.56c2.94-6.22-0.62-13.39-3.81-19.48c-9.31-17.8-13.64-33.04-15.06-52.71
		c-2.02-28.2-6.38-53.9-7.31-82.16c-0.09-2.8-0.17-5.62-0.63-8.39c-1.34-8.1-1.97-17.45-3.7-25.47c-1.61-7.46-1.5-15.17-1.38-22.8
		c0.42-26.63,0.85-53.26,1.27-79.88c0.3-18.56-2-35.41-7.11-53.25C1347.05,270.57,1345.73,235.94,1350.06,199.64z"/>
</g>
<g>
	<path class="st3" d="M1350.06,199.64c13.21,20.62,26.54,41.51,34.42,64.69c7.88,23.19,9.89,49.28,0.39,71.86
		c-2.31,5.48-4.7,13.09,0.3,16.31c4.55-3.31,9.11-6.62,13.66-9.93c-0.34,6.6-5.48,30.58-1.29,35.64
		c5.39,6.52,10.07-9.03,11.55-13.69c5.64-17.76,5.51-37.74,3.58-56.09c-2.69-25.5-6.37-52.03-13.73-76.65
		c-8.69-29.02-17.24-57.72-27.11-86.15c-2.62-7.55-5.45-15.42-11.34-20.82c-7.43-6.82-18.11-8.31-27.85-10.93
		s-20.25-7.91-22.76-17.68c-2.14-8.32-2.67-18.95,3.24-25.19c2.07-2.19,4.6-3.91,6.57-6.19c1.97-2.28,3.34-5.08,3.92-8.03
		c0.74-3.76-1.62-9.07-5.27-7.91c1.83-11.63,3.41-24.49-3.04-34.34c-4.34-6.62-11.72-10.72-19.31-12.98
		c-3.15-0.94-6.42-1.61-9.71-1.55c-10.53,0.21-19.73,8.14-24.26,17.65c-4.53,9.51-5.19,20.36-5.16,30.9
		c-3.56,0.72-2.91,6.29-1.1,9.44c7.13,12.36,10.19,27.03,8.6,41.22c-13.95,7.82-27.9,15.64-41.84,23.46
		c-4.48,2.51-9.1,5.14-12.11,9.3c-3.11,4.28-4.15,9.67-5.11,14.87c-2.21,11.94-4.41,23.87-6.62,35.81
		c-2.02,10.92-3.47,24.49-7.64,34.78c-2.95,7.26-7.6,13.75-10.44,21.06c-2.98,7.66-3.87,15.96-4.74,24.13
		c-1.85,17.52-3.7,35.03-5.55,52.55c-1.24,11.73-5.09,24.97-2.83,36.55c2.26,11.58,11.05,22.78,22.81,23.82
		c1.9-2.11,0.37-5.62-1.92-7.3c-2.29-1.69-5.19-2.46-7.28-4.38c-4.92-4.52-3.05-12.53-0.8-18.82c1.04,6.08,7.5,10.66,13.58,9.64
		c-1.22-5.81-2.43-11.62-3.65-17.43c-2.13-10.18-4.27-20.58-3.07-30.91c2.1-17.97,13.9-33.13,20.51-49.97
		c7.91-20.16,9.05-44.08,24.16-59.6c1.2,17.76,2.53,35.4,8.71,52.09c5.94,16.03-1.93,33.36-4.29,50.29
		c-3.69,26.51-7.39,53.03-11.08,79.54c-4.8,34.43,0.42,69.14-2.8,103.46c-2.35,25.03-4.17,50.14-4.55,75.28
		c-0.33,21.69,3.49,47.5-8.33,67c-2.87,4.74-6.51,9.05-8.66,14.15s-2.52,11.47,0.94,15.79c2.93,3.66,7.97,5.04,12.66,4.89
		c9.04-0.28,17.75-5.75,21.91-13.79c1.11-2.14,1.97-4.51,3.76-6.12c3.33-3,8.93-2.52,11.97-5.82c3.15-3.43,1.86-8.8,1.13-13.4
		c-3.21-20.14,0.05-42.18,1.14-62.46c1.84-34.3,3.74-68.92,12.99-102c6.51-23.28,12.27-47.01,18.47-70.75
		c0.8-3.07,1.67-6.23,3.61-8.74c1.94-2.51,5.25-4.24,8.31-3.39c4.78,1.33,5.99,7.4,6.62,12.32c0.86,6.68,2.26,13.28,4.18,19.74
		c2.88,9.66,6.91,18.93,10.02,28.52c6.38,19.71,10.05,41.68,10.73,62.39c0.66,20.06,5.11,38.43,9.35,58.12
		c3.61,16.78,3.5,33.52,5.61,50.32c0.81,6.44,1.63,12.92,3.64,19.09c2.7,8.27,7.44,15.69,12.14,23.02
		c6.99,10.9,26.72,20.74,34.83,3.56c2.94-6.22-0.62-13.39-3.81-19.48c-9.31-17.8-13.64-33.04-15.06-52.71
		c-2.02-28.2-6.38-53.9-7.31-82.16c-0.09-2.8-0.17-5.62-0.63-8.39c-1.34-8.1-1.97-17.45-3.7-25.47c-1.61-7.46-1.5-15.17-1.38-22.8
		c0.42-26.63,0.85-53.26,1.27-79.88c0.3-18.56-2-35.41-7.11-53.25C1347.05,270.57,1345.73,235.94,1350.06,199.64z"/>
</g>
<g>
	<defs>
		<path id="SVGID_00000082356751535938273240000007457807194722160288_" d="M1167.14,256.29c4.61-5.19,12.39-6.6,19.17-5.15
			c6.78,1.45,12.77,5.33,18.4,9.39c1.79,1.29,3.65,2.65,5.82,3.03c1.85,0.32,3.74-0.09,5.58-0.45c16.62-3.25,34.1-1.97,50.07,3.66
			c1.86,0.66,3.8,1.38,5.75,1.07c2.16-0.35,3.89-1.89,5.52-3.35c5.69-5.11,11.85-10.12,19.23-12.09s16.31-0.13,20.56,6.23
			c2.04,3.06,2.8,6.77,3.44,10.39c0.73,4.18,1.22,8.95-1.47,12.23c-1.31,1.61-3.23,2.62-4.58,4.19c-2.56,2.97-2.67,7.27-2.64,11.19
			c0.08,11.99,0.16,23.97,0.23,35.96c0.08,12.44-5.24,24.74-2.81,36.94c1.27,6.39,3.63,12.53,4.85,18.93
			c0.75,3.94,1.04,8.12-0.4,11.86c-2.5,6.49-10.01,10.19-16.93,9.52c0.29,2.88,0.58,5.77,0.87,8.65c-4.51-0.44-8.34,2.97-11.96,5.71
			c-14.52,10.98-34.27,13.39-52.06,9.51c-1.56-0.34-3.24-0.71-4.7-0.07c-1.76,0.78-2.59,2.76-3.82,4.24
			c-1.23,1.48-3.79,2.4-4.93,0.85c-0.52,44.16-11.33,88.17-31.33,127.55c-7.79,15.35-2.76,33.96-7.03,50.64
			c-2.89,11.27-6.66,22.32-9.06,33.71c-4.11,19.5-4.12,39.59-4.11,59.51c0,1.43,0.02,2.93,0.69,4.2c1.5,2.8,5.29,3.12,8.45,3.39
			c12.29,1.06,24.66,7.4,30.37,18.34c1.15,2.2,2.03,4.69,1.63,7.14c-1.14,6.92-10.39,8.27-17.39,7.94
			c-3.96,6.31-13.12,7.56-20.55,8.19c-11.58,1-23.23,1.99-34.82,1.04s-23.22-3.97-32.9-10.39c-10.39-6.9-3.73-23.31-8.37-34.89
			c-0.83-2.06-1.89-4.04-2.35-6.21c-0.47-2.18-0.31-4.44-0.19-6.67c1.66-30.58-4.12-61.03-9.88-91.11
			c-2.01-10.48-4.01-20.96-6.02-31.44c-0.74-3.85-1-8.81,2.45-10.68c-8.33-7.79-21.94,4.06-33.3,3.01
			c-5.57-0.51-10.88-2.49-16.26-4.04c-25.78-7.41-53.22-4.92-79.97-6.95c-34.09-2.59-67.59-12.75-97.39-29.52
			c-5.29-2.98-10.74-6.45-13.36-11.93c-6.42-13.39-15.65-23.56-25.02-35.09c-5.73,6.51-11.51,13.09-15.69,20.69
			c-3.39,6.16-5.66,12.89-9.15,18.99c-3.79,6.62-8.92,12.35-13.67,18.33c-13.79,17.36-24.42,36.96-34.99,56.45
			c-3.88,7.17-7.81,14.44-9.66,22.38c-1.59,6.81-1.59,13.91-0.73,20.85c1.18,9.56,4.09,19.11,9.94,26.76
			c9.7,0.18,19.09,1.53,27.85,5.69s15.92,13.36,14.51,22.95c-2.99-0.06-6.61,0.23-7.97,2.89c-0.65,1.26-0.61,2.82-1.39,4.01
			c-0.79,1.2-2.23,1.76-3.6,2.22c-18.97,6.31-40.31,5.17-58.5-3.12c-2.23-1.02-4.46-2.17-6.16-3.94c-1.75-1.83-2.82-4.18-3.85-6.49
			c-10.58-23.65-16.23-48.24-30.1-70.57c-3.4-5.47-3.27-10.21-3.55-16.65c-0.28-6.44,1.47-13.24,6.05-17.77
			c1.27-1.25,2.71-2.3,4.05-3.48c4.88-4.31,8.17-10.39,9.11-16.84c0.35-2.4,0.54-5.14,2.43-6.66c0.56-17.72,0.22-36.61,0.78-54.32
			c0.35-10.94,0.69-21.94-0.81-32.78c-3-21.59-13.23-41.95-13.91-63.73c-5.12,31.41-10.28,62.92-15.4,94.32
			c-0.78,4.76-1.56,9.57-3.3,14.07c-2.04,5.28-5.33,9.97-8.8,14.45c-11.48,14.84-26.64,28.61-45.27,30.87
			c-19.11,2.33-37.7-8.09-51.58-21.44c-1.64-1.57-3.07-4.64-1.06-5.69c-9.98-20.31-21.53-41.68-15.54-63.51
			c5.18-3.06,12.72-0.9,15.51,4.42c1.44,2.75,1.66,5.94,2.08,9.01c2.08,15.26,9.73,29.69,21.2,39.97
			c8.04,7.21,19.22,12.54,29.53,9.29c5.17-1.63,9.49-5.23,13.22-9.17c15.45-16.27,22.87-39.84,19.51-62.03
			c-4.51-29.87,5-58.1,8.16-88.15c1.07-10.16,2.22-20.41,5.58-30.05c3.36-9.65,9.14-18.77,17.73-24.29
			c6.5-13.68,19.43-22.86,33.89-27.38c14.46-4.52,29.83-4.99,44.97-5.41c12.06-0.34,24.12-0.68,36.18-1.02
			c12.64-0.36,25.37-0.71,37.86,1.27c28.27,4.47,53.21,20.42,80.01,30.44c47.79,17.86,101.01,23.03,151.29,14.24
			c11.55-2.02,14.88-9.58,23.4-17.18c8.33-7.42,17.74-13.62,27.79-18.45c20.11-9.65,42.93-13.82,65.12-11.11
			C1162.17,278.5,1158.84,265.63,1167.14,256.29z"/>
	</defs>
	<use xlink:href="#SVGID_00000082356751535938273240000007457807194722160288_"  style="overflow:visible;fill:#F0D6AA;"/>
	<clipPath id="SVGID_00000065057759073855028630000001361942394221299606_">
		<use xlink:href="#SVGID_00000082356751535938273240000007457807194722160288_"  style="overflow:visible;"/>
	</clipPath>
</g>
<g>
	<defs>
		<path id="SVGID_00000156550364225902571840000003547181755404009347_" d="M1167.14,256.29c4.61-5.19,12.39-6.6,19.17-5.15
			c6.78,1.45,12.77,5.33,18.4,9.39c1.79,1.29,3.65,2.65,5.82,3.03c1.85,0.32,3.74-0.09,5.58-0.45c16.62-3.25,34.1-1.97,50.07,3.66
			c1.86,0.66,3.8,1.38,5.75,1.07c2.16-0.35,3.89-1.89,5.52-3.35c5.69-5.11,11.85-10.12,19.23-12.09s16.31-0.13,20.56,6.23
			c2.04,3.06,2.8,6.77,3.44,10.39c0.73,4.18,1.22,8.95-1.47,12.23c-1.31,1.61-3.23,2.62-4.58,4.19c-2.56,2.97-2.67,7.27-2.64,11.19
			c0.08,11.99,0.16,23.97,0.23,35.96c0.08,12.44-5.24,24.74-2.81,36.94c1.27,6.39,3.63,12.53,4.85,18.93
			c0.75,3.94,1.04,8.12-0.4,11.86c-2.5,6.49-10.01,10.19-16.93,9.52c0.29,2.88,0.58,5.77,0.87,8.65c-4.51-0.44-8.34,2.97-11.96,5.71
			c-14.52,10.98-34.27,13.39-52.06,9.51c-1.56-0.34-3.24-0.71-4.7-0.07c-1.76,0.78-2.59,2.76-3.82,4.24
			c-1.23,1.48-3.79,2.4-4.93,0.85c-0.52,44.16-11.33,88.17-31.33,127.55c-7.79,15.35-2.76,33.96-7.03,50.64
			c-2.89,11.27-6.66,22.32-9.06,33.71c-4.11,19.5-4.12,39.59-4.11,59.51c0,1.43,0.02,2.93,0.69,4.2c1.5,2.8,5.29,3.12,8.45,3.39
			c12.29,1.06,24.66,7.4,30.37,18.34c1.15,2.2,2.03,4.69,1.63,7.14c-1.14,6.92-10.39,8.27-17.39,7.94
			c-3.96,6.31-13.12,7.56-20.55,8.19c-11.58,1-23.23,1.99-34.82,1.04s-23.22-3.97-32.9-10.39c-10.39-6.9-3.73-23.31-8.37-34.89
			c-0.83-2.06-1.89-4.04-2.35-6.21c-0.47-2.18-0.31-4.44-0.19-6.67c1.66-30.58-4.12-61.03-9.88-91.11
			c-2.01-10.48-4.01-20.96-6.02-31.44c-0.74-3.85-1-8.81,2.45-10.68c-8.33-7.79-21.94,4.06-33.3,3.01
			c-5.57-0.51-10.88-2.49-16.26-4.04c-25.78-7.41-53.22-4.92-79.97-6.95c-34.09-2.59-67.59-12.75-97.39-29.52
			c-5.29-2.98-10.74-6.45-13.36-11.93c-6.42-13.39-15.65-23.56-25.02-35.09c-5.73,6.51-11.51,13.09-15.69,20.69
			c-3.39,6.16-5.66,12.89-9.15,18.99c-3.79,6.62-8.92,12.35-13.67,18.33c-13.79,17.36-24.42,36.96-34.99,56.45
			c-3.88,7.17-7.81,14.44-9.66,22.38c-1.59,6.81-1.59,13.91-0.73,20.85c1.18,9.56,4.09,19.11,9.94,26.76
			c9.7,0.18,19.09,1.53,27.85,5.69s15.92,13.36,14.51,22.95c-2.99-0.06-6.61,0.23-7.97,2.89c-0.65,1.26-0.61,2.82-1.39,4.01
			c-0.79,1.2-2.23,1.76-3.6,2.22c-18.97,6.31-40.31,5.17-58.5-3.12c-2.23-1.02-4.46-2.17-6.16-3.94c-1.75-1.83-2.82-4.18-3.85-6.49
			c-10.58-23.65-16.23-48.24-30.1-70.57c-3.4-5.47-3.27-10.21-3.55-16.65c-0.28-6.44,1.47-13.24,6.05-17.77
			c1.27-1.25,2.71-2.3,4.05-3.48c4.88-4.31,8.17-10.39,9.11-16.84c0.35-2.4,0.54-5.14,2.43-6.66c0.56-17.72,0.22-36.61,0.78-54.32
			c0.35-10.94,0.69-21.94-0.81-32.78c-3-21.59-13.23-41.95-13.91-63.73c-5.12,31.41-10.28,62.92-15.4,94.32
			c-0.78,4.76-1.56,9.57-3.3,14.07c-2.04,5.28-5.33,9.97-8.8,14.45c-11.48,14.84-26.64,28.61-45.27,30.87
			c-19.11,2.33-37.7-8.09-51.58-21.44c-1.64-1.57-3.07-4.64-1.06-5.69c-9.98-20.31-21.53-41.68-15.54-63.51
			c5.18-3.06,12.72-0.9,15.51,4.42c1.44,2.75,1.66,5.94,2.08,9.01c2.08,15.26,9.73,29.69,21.2,39.97
			c8.04,7.21,19.22,12.54,29.53,9.29c5.17-1.63,9.49-5.23,13.22-9.17c15.45-16.27,22.87-39.84,19.51-62.03
			c-4.51-29.87,5-58.1,8.16-88.15c1.07-10.16,2.22-20.41,5.58-30.05c3.36-9.65,9.14-18.77,17.73-24.29
			c6.5-13.68,19.43-22.86,33.89-27.38c14.46-4.52,29.83-4.99,44.97-5.41c12.06-0.34,24.12-0.68,36.18-1.02
			c12.64-0.36,25.37-0.71,37.86,1.27c28.27,4.47,53.21,20.42,80.01,30.44c47.79,17.86,101.01,23.03,151.29,14.24
			c11.55-2.02,14.88-9.58,23.4-17.18c8.33-7.42,17.74-13.62,27.79-18.45c20.11-9.65,42.93-13.82,65.12-11.11
			C1162.17,278.5,1158.84,265.63,1167.14,256.29z"/>
	</defs>
	<clipPath id="SVGID_00000068663291525732729120000011522527910923243444_">
		<use xlink:href="#SVGID_00000156550364225902571840000003547181755404009347_"  style="overflow:visible;"/>
	</clipPath>
	
		<use xlink:href="#SVGID_00000156550364225902571840000003547181755404009347_"  style="overflow:visible;fill:none;stroke:#FFFFFF;stroke-width:0.5;stroke-miterlimit:10;"/>
</g>
<g>
	<text transform="matrix(1 0 0 1.0001 857.3586 698.2222)" class="st4 st5 st6">129 kg</text>
</g>
<g>
	<text transform="matrix(1 0 0 1 842.1555 131.2964)" class="st0 st7 st8">Adult Tiger (6-7 years old)</text>
</g>
<g>
	<text transform="matrix(1 0 0 1 1638.5973 126.6597)" class="st0 st7 st8">Males </text>
</g>
<g>
	<text transform="matrix(1 0 0 1 942.0314 245.6128)" class="st0 st7 st8">Females </text>
</g>
<g>
	<g>
		<line class="st9" x1="1877.6" y1="397.9" x2="1289.79" y2="234.89"/>
		<g>
			<polygon class="st10" points="1875.5,393.07 1874.65,393.6 1877.23,397.8 1872.86,400.07 1873.32,400.96 1878.65,398.19 			"/>
		</g>
		<g>
			<polygon class="st10" points="1294.07,231.83 1294.53,232.72 1290.16,234.99 1292.74,239.19 1291.89,239.72 1288.74,234.6 			"/>
		</g>
	</g>
</g>
<g>
	<g>
		<line class="st9" x1="1214.01" y1="519.67" x2="647.85" y2="362.66"/>
		<g>
			<polygon class="st10" points="1211.91,514.84 1211.06,515.37 1213.65,519.57 1209.27,521.84 1209.73,522.73 1215.06,519.96 			
				"/>
		</g>
		<g>
			<polygon class="st10" points="652.13,359.61 652.59,360.5 648.22,362.76 650.8,366.97 649.95,367.49 646.8,362.37 			"/>
		</g>
	</g>
</g>
<g>
	<polygon class="st0" points="1543.3,710.03 1699.39,710.03 1679.32,605.56 1563.36,605.56 	"/>
	<circle class="st1" cx="1621.34" cy="606.17" r="28.64"/>
</g>
<g>
	<text transform="matrix(1 0 0 1.0001 1568.361 700.6753)" class="st4 st5 st6">189 kg</text>
</g>
<text transform="matrix(1 0 0 1.0001 1546.4049 288.7349)" class="st10 st7 st11">199 cm</text>
<g>
	<text transform="matrix(1 0 0 1.0001 909.9518 421.6968)" class="st10 st7 st11">182 cm</text>
</g>
<g>
	<text transform="matrix(1 0 0 1.0001 842.1555 52.6538)" class="st5 st12">Size</text>
</g>
</svg>
