<?xml version="1.0" encoding="utf-8"?>
<!-- Generator: Adobe Illustrator 27.0.0, SVG Export Plug-In . SVG Version: 6.00 Build 0)  -->
<svg version="1.1" id="Layer_1" xmlns="http://www.w3.org/2000/svg" xmlns:xlink="http://www.w3.org/1999/xlink" x="0px" y="0px"
	 viewBox="0 0 805 709.29" style="enable-background:new 0 0 805 709.29;" xml:space="preserve">
<style type="text/css">
	@import url('https://fonts.googleapis.com/css?family=Roboto:300,400,700');;
	.st0{fill:#231F20;}
	.st1{fill:none;stroke:#231F20;stroke-width:8;stroke-miterlimit:10;}
	.st2{fill:#BBBDBF;}
	.st3{fill:none;stroke:#FFFFFF;stroke-width:0.5;stroke-miterlimit:10;}
	.st4{fill:#FFFFFF;}
	.st5{font-family:'Roboto';font-weight: 700;}
	.st6{font-size:36.2499px;}
	.st7{font-family:'Roboto';font-weight: 300;}
	.st8{font-size:32px;}
	.st9{fill:none;stroke:#26A9E0;stroke-width:3;stroke-miterlimit:10;}
	.st10{fill:#26A9E0;}
	.st11{font-size:34px;}
	.st12{font-size:46px;}
</style>
<g>
	<polygon class="st0" points="251.97,709.29 390.98,709.29 373.11,616.25 269.84,616.25 	"/>
	<circle class="st1" cx="321.48" cy="616.8" r="25.51"/>
</g>
<g>
	<defs>
		<path id="SVGID_1_" d="M560.35,131.3c19.61,4.29,39.98,4.84,59.9,2.32c9.23-1.17,18.36-2.98,27.58-4.22
			c10.31-1.39,16.74-2.62,27.25-0.73c22.04,3.97,43.6-0.18,64.79,8.61c10.4,4.31,21.64,6.6,32.9,6.7c4.99,0.04,9.57-0.53,12.67-4.45
			c0.83-1.05,1.52-2.24,2.58-3.06s2.67-1.14,3.71-0.29c0.88,0.72,1.04,1.98,1.12,3.11c0.56,8.18-0.06,16.44-1.84,24.44
			c-1.35,6.07,1.72,6.18,4.11,11.91c6.19,14.86,8.37,31.37,6.24,47.32c-1.33,9.96-6.59,33.26-21.75,26.28
			c-0.96,2.74-2.9,5.02-3.85,7.77c1.24,2.39,2.43,5.38,2.85,8.04c0.42,2.66-0.14,5.62-2.1,7.47c-1.92,1.81-4.73,2.21-7.35,2.53
			c-9.56,1.16-20.5,1.91-27.54-4.67c-1.78-1.67-3.17-3.7-4.55-5.72c-0.8-1.18-1.6-2.35-2.4-3.53c-3.83,3.69-9.04,3.2-13.93,5.29
			c-5.55,2.38-9.37,7.48-12.93,12.36c-3.52,4.83-7.03,9.65-10.55,14.48c-4.15,5.7-8.37,11.52-10.61,18.21s-2.24,14.51,1.72,20.35
			c0.2,0.29,0.5,0.61,0.83,0.49c0.33-0.11,0-0.77-0.19-0.48c11.21,15.58,20.82,31.35,32.03,46.92c2.12,2.95,4.26,5.91,6.86,8.45
			c5.13,5.01,12.2,8.55,14.95,15.17c0.6,1.43,1.55,2.25,2.05,3.72c0.22,0.66,0.45,1.4,0.19,2.04c-0.21,0.52-0.68,0.87-0.98,1.34
			c-0.46,0.72-0.46,1.62-0.44,2.47c0.23,7.12,1.7,14.19,4.33,20.81c1.8,4.54,3.99,10.2,0.71,13.82c-0.59,0.65-1.32,1.17-1.8,1.9
			c-0.68,1.03-0.76,2.42-0.21,3.52c-0.76,0.26-1.53,0.52-2.29,0.78c-5.3,1.81-13.8,1.21-18.76-1.38c-4.97-2.59-9.74-6.15-15.32-6.5
			c-2.87-0.18-6.16,0.39-8.29-1.54c-0.94-0.85-1.47-2.06-1.96-3.23c-4.48-10.66-8.35-21.66-14.48-31.46
			c-11.02-17.63-30.49-31.5-48.58-41.11c-6.74,9.68-10.19,21.23-12.17,32.87c-1.12,6.59-0.56,13.46,1.61,19.78
			c8.51,1.78,15.72,6.51,19.63,14.27c1.06,2.11,1.88,4.55,1.22,6.82c-1.45,4.93-8.12,5.49-13.24,5.06
			c-14.25-1.2-28.8-2.47-41.86-8.29c-1.96-13.47,0.07-27.16,2.09-40.61c2.85-18.93,5.69-37.87,8.54-56.8
			c-5.84-1.53-9.73-8.5-8.36-14.38c-23.65-4.01-46.82-9-69.36-17.22c-22.54-8.22-44-20.63-59.76-38.72
			c-8.67,31.95-15.21,62.8-20.44,95.5c-0.65,4.09-1.28,8.32-0.19,12.32c2.09,7.73,10.18,13.22,10.75,21.21
			c0.71,9.93,17.84,6.94,25.57,13.2c2.95,2.39,4.61,7.6,1.4,9.65c-1.01,0.64-2.24,0.77-3.43,0.88c-11.73,1.09-23.46,2.18-35.19,3.28
			c-5.39,0.5-11.34,0.85-15.66-2.41c-2.75-2.08-4.35-5.3-5.86-8.4c-5.56-11.42-11.11-22.84-16.67-34.26
			c-1.94-3.98-3.91-8.08-4.3-12.49c-0.31-3.46,0.38-6.91,0.87-10.35c2.15-14.96-3.25-27.65-4.8-42.51
			c-3.5,10.56-14.35,16.52-21.91,24.68c-8.93,9.64-14.84,21.62-20.63,33.41c-1.33,2.72-2.68,5.92-1.36,8.64
			c0.83,1.71,2.53,2.79,3.88,4.14c3.42,3.43,4.44,9.02,2.45,13.43c-8.81-0.13-17.63-0.25-26.44-0.38c-2.72-0.04-5.68-0.17-7.74-1.94
			c-1.09-0.94-1.8-2.26-2.34-3.6c-3.49-8.75-0.44-18.59,2.62-27.5c0.84-2.46,1.69-4.92,2.53-7.37c5.64-16.43,11.28-32.86,16.91-49.3
			c1.13-0.08,2.27-0.16,3.4-0.24c1.83-4.92,7.22-6.68,10.25-10.96c3.15-4.45,2.4-10.45,3.37-15.82c0.51-2.82,1.52-5.51,2.34-8.25
			c5.66-19.06,1.63-39.48-2.43-58.94c-6.79,29.72-20.54,57.02-41.85,78.82c-4.61,4.72-9.69,9.27-15.92,11.44
			c-5.05,1.75-10.5,1.82-15.84,1.86c-13.04,0.11-23.05-1.05-34.72-7.56c-3.59-2-7.12-4.41-9.32-7.88
			c-3.53-5.58-2.98-12.72-2.31-19.3c0.54-5.29,1.22-10.91,4.58-15.04c3.36-4.12,10.42-5.65,13.9-1.63
			c3.88,4.49,0.7,11.65,2.67,17.25c1.49,4.24,5.84,6.96,10.26,7.78c4.42,0.82,8.96,0.07,13.4-0.67c6.28-1.06,12.55-2.11,18.83-3.17
			c10.6-18.29,17.43-38.75,19.94-59.74c2.07-17.24,7.34-31.87,15.2-47.35s18.98-29.65,33.61-39c27.16-17.35,58.77-20.46,90.96-18.9
			C497.88,114.39,528.87,124.42,560.35,131.3z"/>
	</defs>
	<use xlink:href="#SVGID_1_"  style="overflow:visible;fill:#F0D6AA;"/>
	<clipPath id="SVGID_00000119810733416460275080000016299254143162848149_">
		<use xlink:href="#SVGID_1_"  style="overflow:visible;"/>
	</clipPath>
</g>
<g>
	<path class="st2" d="M661.86,157.94c8.77,13.7,17.63,27.56,22.86,42.96c5.23,15.4,6.56,32.73,0.26,47.72
		c-1.53,3.64-3.12,8.69,0.2,10.83c3.02-2.2,6.05-4.4,9.07-6.6c-0.22,4.39-3.64,20.31-0.86,23.67c3.58,4.33,6.69-6,7.67-9.09
		c3.74-11.79,3.66-25.06,2.38-37.25c-1.78-16.93-4.23-34.55-9.12-50.9c-5.77-19.27-11.45-38.33-18-57.21
		c-1.74-5.01-3.62-10.24-7.53-13.82c-4.94-4.53-12.03-5.52-18.5-7.26c-6.47-1.74-13.45-5.25-15.12-11.74
		c-1.42-5.52-1.77-12.59,2.15-16.73c1.37-1.45,3.05-2.6,4.36-4.11c1.31-1.51,2.22-3.37,2.6-5.33c0.49-2.5-1.07-6.02-3.5-5.25
		c1.21-7.72,2.27-16.26-2.02-22.8c-2.88-4.4-7.78-7.12-12.82-8.62c-2.09-0.62-4.26-1.07-6.45-1.03c-6.99,0.14-13.1,5.41-16.11,11.72
		c-3.01,6.31-3.45,13.52-3.42,20.52c-2.36,0.48-1.94,4.18-0.73,6.27c4.73,8.21,6.77,17.95,5.71,27.37
		c-9.26,5.19-18.52,10.39-27.79,15.58c-2.97,1.67-6.04,3.42-8.04,6.17c-2.06,2.84-2.75,6.42-3.39,9.87
		c-1.46,7.93-2.93,15.85-4.39,23.78c-1.34,7.25-2.3,16.26-5.07,23.1c-1.96,4.82-5.05,9.13-6.93,13.98
		c-1.98,5.09-2.57,10.6-3.14,16.03c-1.23,11.63-2.46,23.26-3.68,34.9c-0.82,7.79-3.38,16.58-1.88,24.27
		c1.5,7.69,7.34,15.13,15.15,15.82c1.26-1.4,0.25-3.73-1.27-4.85c-1.52-1.12-3.45-1.63-4.84-2.91c-3.27-3-2.02-8.32-0.53-12.5
		c0.69,4.03,4.98,7.08,9.02,6.4c-0.81-3.86-1.62-7.72-2.42-11.58c-1.42-6.76-2.84-13.67-2.04-20.53c1.39-11.93,9.23-22,13.62-33.18
		c5.25-13.39,6.01-29.27,16.04-39.58c0.8,11.79,1.68,23.5,5.79,34.59c3.94,10.64-1.28,22.15-2.85,33.4
		c-2.45,17.61-4.91,35.21-7.36,52.82c-3.19,22.87,0.28,45.91-1.86,68.7c-1.56,16.62-2.77,33.29-3.02,49.99
		c-0.22,14.4,2.32,31.54-5.53,44.49c-1.91,3.15-4.32,6.01-5.75,9.4c-1.43,3.39-1.68,7.61,0.62,10.48c1.95,2.43,5.29,3.35,8.4,3.25
		c6.01-0.18,11.78-3.82,14.55-9.16c0.74-1.42,1.31-2.99,2.5-4.06c2.21-1.99,5.93-1.67,7.95-3.86c2.09-2.28,1.24-5.84,0.75-8.9
		c-2.13-13.38,0.03-28.01,0.76-41.48c1.22-22.77,2.48-45.76,8.62-67.73c4.32-15.46,8.15-31.22,12.27-46.98
		c0.53-2.04,1.11-4.14,2.4-5.81c1.29-1.67,3.49-2.82,5.52-2.25c3.17,0.89,3.98,4.91,4.4,8.18c0.57,4.43,1.5,8.82,2.78,13.11
		c1.91,6.41,4.59,12.57,6.65,18.94c4.24,13.09,6.67,27.68,7.12,41.43c0.44,13.32,3.4,25.52,6.21,38.6
		c2.4,11.14,2.33,22.26,3.73,33.41c0.54,4.28,1.08,8.58,2.42,12.68c1.79,5.49,4.94,10.42,8.06,15.28
		c4.64,7.24,17.74,13.77,23.13,2.36c1.95-4.13-0.41-8.89-2.53-12.94c-6.18-11.82-9.06-21.94-10-35
		c-1.34-18.73-4.24-35.79-4.85-54.56c-0.06-1.86-0.11-3.73-0.42-5.57c-0.89-5.38-1.31-11.59-2.46-16.91
		c-1.07-4.95-1-10.07-0.92-15.14c0.28-17.68,0.56-35.36,0.84-53.05c0.2-12.33-1.33-23.51-4.72-35.36
		C659.86,205.04,658.99,182.05,661.86,157.94z"/>
</g>
<g>
	<path class="st3" d="M661.86,157.94c8.77,13.7,17.63,27.56,22.86,42.96c5.23,15.4,6.56,32.73,0.26,47.72
		c-1.53,3.64-3.12,8.69,0.2,10.83c3.02-2.2,6.05-4.4,9.07-6.6c-0.22,4.39-3.64,20.31-0.86,23.67c3.58,4.33,6.69-6,7.67-9.09
		c3.74-11.79,3.66-25.06,2.38-37.25c-1.78-16.93-4.23-34.55-9.12-50.9c-5.77-19.27-11.45-38.33-18-57.21
		c-1.74-5.01-3.62-10.24-7.53-13.82c-4.94-4.53-12.03-5.52-18.5-7.26c-6.47-1.74-13.45-5.25-15.12-11.74
		c-1.42-5.52-1.77-12.59,2.15-16.73c1.37-1.45,3.05-2.6,4.36-4.11c1.31-1.51,2.22-3.37,2.6-5.33c0.49-2.5-1.07-6.02-3.5-5.25
		c1.21-7.72,2.27-16.26-2.02-22.8c-2.88-4.4-7.78-7.12-12.82-8.62c-2.09-0.62-4.26-1.07-6.45-1.03c-6.99,0.14-13.1,5.41-16.11,11.72
		c-3.01,6.31-3.45,13.52-3.42,20.52c-2.36,0.48-1.94,4.18-0.73,6.27c4.73,8.21,6.77,17.95,5.71,27.37
		c-9.26,5.19-18.52,10.39-27.79,15.58c-2.97,1.67-6.04,3.42-8.04,6.17c-2.06,2.84-2.75,6.42-3.39,9.87
		c-1.46,7.93-2.93,15.85-4.39,23.78c-1.34,7.25-2.3,16.26-5.07,23.1c-1.96,4.82-5.05,9.13-6.93,13.98
		c-1.98,5.09-2.57,10.6-3.14,16.03c-1.23,11.63-2.46,23.26-3.68,34.9c-0.82,7.79-3.38,16.58-1.88,24.27
		c1.5,7.69,7.34,15.13,15.15,15.82c1.26-1.4,0.25-3.73-1.27-4.85c-1.52-1.12-3.45-1.63-4.84-2.91c-3.27-3-2.02-8.32-0.53-12.5
		c0.69,4.03,4.98,7.08,9.02,6.4c-0.81-3.86-1.62-7.72-2.42-11.58c-1.42-6.76-2.84-13.67-2.04-20.53c1.39-11.93,9.23-22,13.62-33.18
		c5.25-13.39,6.01-29.27,16.04-39.58c0.8,11.79,1.68,23.5,5.79,34.59c3.94,10.64-1.28,22.15-2.85,33.4
		c-2.45,17.61-4.91,35.21-7.36,52.82c-3.19,22.87,0.28,45.91-1.86,68.7c-1.56,16.62-2.77,33.29-3.02,49.99
		c-0.22,14.4,2.32,31.54-5.53,44.49c-1.91,3.15-4.32,6.01-5.75,9.4c-1.43,3.39-1.68,7.61,0.62,10.48c1.95,2.43,5.29,3.35,8.4,3.25
		c6.01-0.18,11.78-3.82,14.55-9.16c0.74-1.42,1.31-2.99,2.5-4.06c2.21-1.99,5.93-1.67,7.95-3.86c2.09-2.28,1.24-5.84,0.75-8.9
		c-2.13-13.38,0.03-28.01,0.76-41.48c1.22-22.77,2.48-45.76,8.62-67.73c4.32-15.46,8.15-31.22,12.27-46.98
		c0.53-2.04,1.11-4.14,2.4-5.81c1.29-1.67,3.49-2.82,5.52-2.25c3.17,0.89,3.98,4.91,4.4,8.18c0.57,4.43,1.5,8.82,2.78,13.11
		c1.91,6.41,4.59,12.57,6.65,18.94c4.24,13.09,6.67,27.68,7.12,41.43c0.44,13.32,3.4,25.52,6.21,38.6
		c2.4,11.14,2.33,22.26,3.73,33.41c0.54,4.28,1.08,8.58,2.42,12.68c1.79,5.49,4.94,10.42,8.06,15.28
		c4.64,7.24,17.74,13.77,23.13,2.36c1.95-4.13-0.41-8.89-2.53-12.94c-6.18-11.82-9.06-21.94-10-35
		c-1.34-18.73-4.24-35.79-4.85-54.56c-0.06-1.86-0.11-3.73-0.42-5.57c-0.89-5.38-1.31-11.59-2.46-16.91
		c-1.07-4.95-1-10.07-0.92-15.14c0.28-17.68,0.56-35.36,0.84-53.05c0.2-12.33-1.33-23.51-4.72-35.36
		C659.86,205.04,658.99,182.05,661.86,157.94z"/>
</g>
<g>
	<path class="st2" d="M144.86,379.94c8.77,13.7,17.63,27.56,22.86,42.96c5.23,15.4,6.56,32.73,0.26,47.72
		c-1.53,3.64-3.12,8.69,0.2,10.83c3.02-2.2,6.05-4.4,9.07-6.6c-0.22,4.39-3.64,20.31-0.86,23.67c3.58,4.33,6.69-6,7.67-9.09
		c3.74-11.79,3.66-25.06,2.38-37.25c-1.78-16.93-4.23-34.55-9.12-50.9c-5.77-19.27-11.45-38.33-18-57.21
		c-1.74-5.01-3.62-10.24-7.53-13.82c-4.94-4.53-12.03-5.52-18.49-7.26c-6.47-1.74-13.45-5.25-15.12-11.74
		c-1.42-5.52-1.77-12.59,2.15-16.73c1.37-1.45,3.05-2.6,4.36-4.11c1.31-1.51,2.22-3.37,2.6-5.33c0.49-2.5-1.07-6.02-3.5-5.25
		c1.21-7.72,2.27-16.26-2.02-22.8c-2.88-4.4-7.78-7.12-12.82-8.62c-2.09-0.62-4.26-1.07-6.45-1.03c-6.99,0.14-13.1,5.41-16.11,11.72
		c-3.01,6.31-3.45,13.52-3.42,20.52c-2.36,0.48-1.94,4.18-0.73,6.27c4.73,8.21,6.77,17.95,5.71,27.37
		c-9.26,5.19-18.52,10.39-27.79,15.58c-2.97,1.67-6.04,3.42-8.04,6.17c-2.06,2.84-2.75,6.42-3.39,9.87
		c-1.46,7.93-2.93,15.85-4.39,23.78c-1.34,7.25-2.3,16.26-5.07,23.1c-1.96,4.82-5.05,9.13-6.93,13.98
		c-1.98,5.09-2.57,10.6-3.14,16.03c-1.23,11.63-2.46,23.26-3.68,34.9c-0.82,7.79-3.38,16.58-1.88,24.27
		c1.5,7.69,7.34,15.13,15.15,15.82c1.26-1.4,0.25-3.73-1.27-4.85s-3.45-1.63-4.84-2.91c-3.27-3-2.02-8.32-0.53-12.5
		c0.69,4.03,4.98,7.08,9.02,6.4c-0.81-3.86-1.62-7.72-2.42-11.58c-1.42-6.76-2.84-13.67-2.04-20.53c1.39-11.93,9.23-22,13.62-33.18
		c5.25-13.39,6.01-29.27,16.04-39.58c0.8,11.79,1.68,23.5,5.79,34.59c3.94,10.64-1.28,22.15-2.85,33.4
		c-2.45,17.61-4.91,35.21-7.36,52.82c-3.19,22.87,0.28,45.91-1.86,68.7c-1.56,16.62-2.77,33.29-3.02,49.99
		c-0.22,14.4,2.32,31.54-5.53,44.49c-1.91,3.15-4.32,6.01-5.75,9.4c-1.43,3.39-1.68,7.61,0.62,10.48c1.95,2.43,5.29,3.35,8.4,3.25
		c6.01-0.18,11.78-3.82,14.55-9.16c0.74-1.42,1.31-2.99,2.5-4.06c2.21-1.99,5.93-1.67,7.95-3.86c2.09-2.28,1.24-5.84,0.75-8.9
		c-2.13-13.38,0.03-28.01,0.76-41.48c1.22-22.77,2.48-45.76,8.62-67.73c4.32-15.46,8.15-31.22,12.27-46.98
		c0.53-2.04,1.11-4.14,2.4-5.81c1.29-1.67,3.49-2.82,5.52-2.25c3.17,0.89,3.98,4.91,4.4,8.18c0.57,4.43,1.5,8.82,2.78,13.11
		c1.91,6.41,4.59,12.57,6.65,18.94c4.24,13.09,6.67,27.68,7.12,41.43c0.44,13.32,3.4,25.52,6.21,38.6
		c2.4,11.14,2.33,22.26,3.73,33.41c0.54,4.28,1.08,8.58,2.42,12.68c1.79,5.49,4.94,10.42,8.06,15.28
		c4.64,7.24,17.74,13.77,23.13,2.36c1.95-4.13-0.41-8.89-2.53-12.94c-6.18-11.82-9.06-21.94-10-35
		c-1.34-18.73-4.24-35.79-4.85-54.56c-0.06-1.86-0.11-3.73-0.42-5.57c-0.89-5.38-1.31-11.59-2.46-16.91
		c-1.07-4.95-1-10.07-0.92-15.14c0.28-17.68,0.56-35.36,0.84-53.05c0.2-12.33-1.33-23.51-4.72-35.36
		C142.86,427.04,141.99,404.05,144.86,379.94z"/>
</g>
<g>
	<path class="st3" d="M144.86,379.94c8.77,13.7,17.63,27.56,22.86,42.96c5.23,15.4,6.56,32.73,0.26,47.72
		c-1.53,3.64-3.12,8.69,0.2,10.83c3.02-2.2,6.05-4.4,9.07-6.6c-0.22,4.39-3.64,20.31-0.86,23.67c3.58,4.33,6.69-6,7.67-9.09
		c3.74-11.79,3.66-25.06,2.38-37.25c-1.78-16.93-4.23-34.55-9.12-50.9c-5.77-19.27-11.45-38.33-18-57.21
		c-1.74-5.01-3.62-10.24-7.53-13.82c-4.94-4.53-12.03-5.52-18.49-7.26c-6.47-1.74-13.45-5.25-15.12-11.74
		c-1.42-5.52-1.77-12.59,2.15-16.73c1.37-1.45,3.05-2.6,4.36-4.11c1.31-1.51,2.22-3.37,2.6-5.33c0.49-2.5-1.07-6.02-3.5-5.25
		c1.21-7.72,2.27-16.26-2.02-22.8c-2.88-4.4-7.78-7.12-12.82-8.62c-2.09-0.62-4.26-1.07-6.45-1.03c-6.99,0.14-13.1,5.41-16.11,11.72
		c-3.01,6.31-3.45,13.52-3.42,20.52c-2.36,0.48-1.94,4.18-0.73,6.27c4.73,8.21,6.77,17.95,5.71,27.37
		c-9.26,5.19-18.52,10.39-27.79,15.58c-2.97,1.67-6.04,3.42-8.04,6.17c-2.06,2.84-2.75,6.42-3.39,9.87
		c-1.46,7.93-2.93,15.85-4.39,23.78c-1.34,7.25-2.3,16.26-5.07,23.1c-1.96,4.82-5.05,9.13-6.93,13.98
		c-1.98,5.09-2.57,10.6-3.14,16.03c-1.23,11.63-2.46,23.26-3.68,34.9c-0.82,7.79-3.38,16.58-1.88,24.27
		c1.5,7.69,7.34,15.13,15.15,15.82c1.26-1.4,0.25-3.73-1.27-4.85s-3.45-1.63-4.84-2.91c-3.27-3-2.02-8.32-0.53-12.5
		c0.69,4.03,4.98,7.08,9.02,6.4c-0.81-3.86-1.62-7.72-2.42-11.58c-1.42-6.76-2.84-13.67-2.04-20.53c1.39-11.93,9.23-22,13.62-33.18
		c5.25-13.39,6.01-29.27,16.04-39.58c0.8,11.79,1.68,23.5,5.79,34.59c3.94,10.64-1.28,22.15-2.85,33.4
		c-2.45,17.61-4.91,35.21-7.36,52.82c-3.19,22.87,0.28,45.91-1.86,68.7c-1.56,16.62-2.77,33.29-3.02,49.99
		c-0.22,14.4,2.32,31.54-5.53,44.49c-1.91,3.15-4.32,6.01-5.75,9.4c-1.43,3.39-1.68,7.61,0.62,10.48c1.95,2.43,5.29,3.35,8.4,3.25
		c6.01-0.18,11.78-3.82,14.55-9.16c0.74-1.42,1.31-2.99,2.5-4.06c2.21-1.99,5.93-1.67,7.95-3.86c2.09-2.28,1.24-5.84,0.75-8.9
		c-2.13-13.38,0.03-28.01,0.76-41.48c1.22-22.77,2.48-45.76,8.62-67.73c4.32-15.46,8.15-31.22,12.27-46.98
		c0.53-2.04,1.11-4.14,2.4-5.81c1.29-1.67,3.49-2.82,5.52-2.25c3.17,0.89,3.98,4.91,4.4,8.18c0.57,4.43,1.5,8.82,2.78,13.11
		c1.91,6.41,4.59,12.57,6.65,18.94c4.24,13.09,6.67,27.68,7.12,41.43c0.44,13.32,3.4,25.52,6.21,38.6
		c2.4,11.14,2.33,22.26,3.73,33.41c0.54,4.28,1.08,8.58,2.42,12.68c1.79,5.49,4.94,10.42,8.06,15.28
		c4.64,7.24,17.74,13.77,23.13,2.36c1.95-4.13-0.41-8.89-2.53-12.94c-6.18-11.82-9.06-21.94-10-35
		c-1.34-18.73-4.24-35.79-4.85-54.56c-0.06-1.86-0.11-3.73-0.42-5.57c-0.89-5.38-1.31-11.59-2.46-16.91
		c-1.07-4.95-1-10.07-0.92-15.14c0.28-17.68,0.56-35.36,0.84-53.05c0.2-12.33-1.33-23.51-4.72-35.36
		C142.86,427.04,141.99,404.05,144.86,379.94z"/>
</g>
<g>
	<defs>
		<path id="SVGID_00000081613311703959745080000009666527279705984957_" d="M470.64,374.77c3.06-3.44,8.23-4.38,12.73-3.42
			c4.5,0.97,8.48,3.54,12.22,6.23c1.19,0.86,2.42,1.76,3.86,2.01c1.23,0.22,2.48-0.06,3.7-0.3c11.04-2.16,22.64-1.31,33.25,2.43
			c1.24,0.44,2.53,0.92,3.82,0.71c1.43-0.23,2.59-1.26,3.67-2.22c3.78-3.39,7.87-6.72,12.77-8.03c4.91-1.31,10.83-0.08,13.65,4.14
			c1.36,2.03,1.86,4.5,2.28,6.9c0.49,2.78,0.81,5.94-0.97,8.12c-0.87,1.07-2.14,1.74-3.04,2.78c-1.7,1.97-1.77,4.83-1.75,7.43
			c0.05,7.96,0.1,15.92,0.16,23.88c0.05,8.26-3.48,16.43-1.86,24.53c0.85,4.24,2.41,8.32,3.22,12.57c0.5,2.62,0.69,5.39-0.27,7.88
			c-1.66,4.31-6.65,6.77-11.25,6.32c0.19,1.92,0.39,3.83,0.58,5.75c-3-0.29-5.54,1.97-7.94,3.79c-9.64,7.29-22.76,8.89-34.57,6.32
			c-1.03-0.23-2.15-0.47-3.12-0.04c-1.17,0.52-1.72,1.83-2.54,2.81s-2.51,1.59-3.27,0.56c-0.35,29.33-7.52,58.55-20.8,84.7
			c-5.18,10.19-1.83,22.55-4.67,33.62c-1.92,7.49-4.42,14.82-6.02,22.39c-2.73,12.95-2.73,26.29-2.73,39.52
			c0,0.95,0.01,1.95,0.46,2.79c1,1.86,3.51,2.07,5.61,2.25c8.16,0.7,16.38,4.91,20.17,12.18c0.76,1.46,1.35,3.11,1.08,4.74
			c-0.75,4.59-6.9,5.49-11.55,5.27c-2.63,4.19-8.71,5.02-13.65,5.44c-7.69,0.66-15.43,1.32-23.12,0.69
			c-7.69-0.63-15.42-2.63-21.85-6.9c-6.9-4.58-2.48-15.48-5.56-23.17c-0.55-1.37-1.25-2.68-1.56-4.12
			c-0.31-1.45-0.21-2.95-0.13-4.43c1.1-20.31-2.74-40.53-6.56-60.5c-1.33-6.96-2.66-13.92-4-20.88c-0.49-2.56-0.66-5.85,1.63-7.09
			c-5.53-5.17-14.57,2.69-22.11,2c-3.7-0.34-7.23-1.65-10.8-2.68c-17.12-4.92-35.34-3.26-53.1-4.62
			c-22.64-1.72-44.88-8.46-64.67-19.6c-3.51-1.98-7.13-4.29-8.87-7.92c-4.26-8.89-10.39-15.65-16.61-23.3
			c-3.81,4.32-7.64,8.69-10.42,13.74c-2.25,4.09-3.76,8.56-6.08,12.61c-2.52,4.4-5.93,8.2-9.08,12.17
			c-9.15,11.53-16.22,24.55-23.23,37.49c-2.58,4.76-5.19,9.59-6.42,14.86c-1.05,4.52-1.06,9.24-0.49,13.84
			c0.78,6.35,2.72,12.69,6.6,17.77c6.44,0.12,12.67,1.01,18.49,3.78c5.82,2.76,10.57,8.87,9.64,15.24
			c-1.98-0.04-4.39,0.15-5.29,1.92c-0.43,0.84-0.4,1.88-0.92,2.66c-0.52,0.8-1.48,1.17-2.39,1.47c-12.6,4.19-26.77,3.43-38.85-2.07
			c-1.48-0.68-2.96-1.44-4.09-2.62c-1.16-1.21-1.87-2.78-2.56-4.31c-7.02-15.7-10.78-32.03-19.99-46.86
			c-2.26-3.63-2.17-6.78-2.36-11.06c-0.18-4.27,0.97-8.79,4.02-11.8c0.84-0.83,1.8-1.53,2.69-2.31c3.24-2.86,5.43-6.9,6.05-11.18
			c0.23-1.59,0.36-3.42,1.61-4.42c0.37-11.76,0.14-24.31,0.52-36.07c0.23-7.26,0.46-14.57-0.54-21.77
			c-1.99-14.33-8.79-27.86-9.24-42.32c-3.4,20.86-6.83,41.78-10.23,62.64c-0.52,3.16-1.04,6.35-2.19,9.34
			c-1.36,3.5-3.54,6.62-5.84,9.59c-7.63,9.85-17.69,19-30.06,20.5c-12.69,1.54-25.03-5.37-34.25-14.23
			c-1.09-1.04-2.04-3.08-0.7-3.78c-6.63-13.49-14.29-27.68-10.32-42.17c3.44-2.03,8.45-0.6,10.3,2.94c0.95,1.82,1.1,3.94,1.38,5.98
			c1.38,10.13,6.46,19.72,14.08,26.54c5.34,4.79,12.76,8.32,19.61,6.17c3.43-1.08,6.3-3.48,8.78-6.09
			c10.26-10.81,15.18-26.45,12.96-41.19c-3-19.84,3.32-38.58,5.42-58.54c0.71-6.74,1.48-13.55,3.7-19.96
			c2.23-6.41,6.07-12.46,11.78-16.13c4.32-9.09,12.9-15.18,22.51-18.18c9.6-3,19.81-3.31,29.86-3.6c8.01-0.23,16.02-0.45,24.02-0.68
			c8.39-0.24,16.85-0.47,25.14,0.84c18.77,2.97,35.33,13.56,53.13,20.22c31.73,11.86,67.08,15.29,100.47,9.46
			c7.67-1.34,9.88-6.36,15.54-11.41c5.53-4.93,11.78-9.05,18.46-12.25c13.35-6.41,28.51-9.18,43.24-7.38
			C467.34,389.53,465.13,380.98,470.64,374.77z"/>
	</defs>
	<use xlink:href="#SVGID_00000081613311703959745080000009666527279705984957_"  style="overflow:visible;fill:#F0D6AA;"/>
	<clipPath id="SVGID_00000146491116769760391910000011445979145938748853_">
		<use xlink:href="#SVGID_00000081613311703959745080000009666527279705984957_"  style="overflow:visible;"/>
	</clipPath>
</g>
<g>
	<defs>
		<path id="SVGID_00000052816470879262804430000008140148566525503113_" d="M470.64,374.77c3.06-3.44,8.23-4.38,12.73-3.42
			c4.5,0.97,8.48,3.54,12.22,6.23c1.19,0.86,2.42,1.76,3.86,2.01c1.23,0.22,2.48-0.06,3.7-0.3c11.04-2.16,22.64-1.31,33.25,2.43
			c1.24,0.44,2.53,0.92,3.82,0.71c1.43-0.23,2.59-1.26,3.67-2.22c3.78-3.39,7.87-6.72,12.77-8.03c4.91-1.31,10.83-0.08,13.65,4.14
			c1.36,2.03,1.86,4.5,2.28,6.9c0.49,2.78,0.81,5.94-0.97,8.12c-0.87,1.07-2.14,1.74-3.04,2.78c-1.7,1.97-1.77,4.83-1.75,7.43
			c0.05,7.96,0.1,15.92,0.16,23.88c0.05,8.26-3.48,16.43-1.86,24.53c0.85,4.24,2.41,8.32,3.22,12.57c0.5,2.62,0.69,5.39-0.27,7.88
			c-1.66,4.31-6.65,6.77-11.25,6.32c0.19,1.92,0.39,3.83,0.58,5.75c-3-0.29-5.54,1.97-7.94,3.79c-9.64,7.29-22.76,8.89-34.57,6.32
			c-1.03-0.23-2.15-0.47-3.12-0.04c-1.17,0.52-1.72,1.83-2.54,2.81s-2.51,1.59-3.27,0.56c-0.35,29.33-7.52,58.55-20.8,84.7
			c-5.18,10.19-1.83,22.55-4.67,33.62c-1.92,7.49-4.42,14.82-6.02,22.39c-2.73,12.95-2.73,26.29-2.73,39.52
			c0,0.95,0.01,1.95,0.46,2.79c1,1.86,3.51,2.07,5.61,2.25c8.16,0.7,16.38,4.91,20.17,12.18c0.76,1.46,1.35,3.11,1.08,4.74
			c-0.75,4.59-6.9,5.49-11.55,5.27c-2.63,4.19-8.71,5.02-13.65,5.44c-7.69,0.66-15.43,1.32-23.12,0.69
			c-7.69-0.63-15.42-2.63-21.85-6.9c-6.9-4.58-2.48-15.48-5.56-23.17c-0.55-1.37-1.25-2.68-1.56-4.12
			c-0.31-1.45-0.21-2.95-0.13-4.43c1.1-20.31-2.74-40.53-6.56-60.5c-1.33-6.96-2.66-13.92-4-20.88c-0.49-2.56-0.66-5.85,1.63-7.09
			c-5.53-5.17-14.57,2.69-22.11,2c-3.7-0.34-7.23-1.65-10.8-2.68c-17.12-4.92-35.34-3.26-53.1-4.62
			c-22.64-1.72-44.88-8.46-64.67-19.6c-3.51-1.98-7.13-4.29-8.87-7.92c-4.26-8.89-10.39-15.65-16.61-23.3
			c-3.81,4.32-7.64,8.69-10.42,13.74c-2.25,4.09-3.76,8.56-6.08,12.61c-2.52,4.4-5.93,8.2-9.08,12.17
			c-9.15,11.53-16.22,24.55-23.23,37.49c-2.58,4.76-5.19,9.59-6.42,14.86c-1.05,4.52-1.06,9.24-0.49,13.84
			c0.78,6.35,2.72,12.69,6.6,17.77c6.44,0.12,12.67,1.01,18.49,3.78c5.82,2.76,10.57,8.87,9.64,15.24
			c-1.98-0.04-4.39,0.15-5.29,1.92c-0.43,0.84-0.4,1.88-0.92,2.66c-0.52,0.8-1.48,1.17-2.39,1.47c-12.6,4.19-26.77,3.43-38.85-2.07
			c-1.48-0.68-2.96-1.44-4.09-2.62c-1.16-1.21-1.87-2.78-2.56-4.31c-7.02-15.7-10.78-32.03-19.99-46.86
			c-2.26-3.63-2.17-6.78-2.36-11.06c-0.18-4.27,0.97-8.79,4.02-11.8c0.84-0.83,1.8-1.53,2.69-2.31c3.24-2.86,5.43-6.9,6.05-11.18
			c0.23-1.59,0.36-3.42,1.61-4.42c0.37-11.76,0.14-24.31,0.52-36.07c0.23-7.26,0.46-14.57-0.54-21.77
			c-1.99-14.33-8.79-27.86-9.24-42.32c-3.4,20.86-6.83,41.78-10.23,62.64c-0.52,3.16-1.04,6.35-2.19,9.34
			c-1.36,3.5-3.54,6.62-5.84,9.59c-7.63,9.85-17.69,19-30.06,20.5c-12.69,1.54-25.03-5.37-34.25-14.23
			c-1.09-1.04-2.04-3.08-0.7-3.78c-6.63-13.49-14.29-27.68-10.32-42.17c3.44-2.03,8.45-0.6,10.3,2.94c0.95,1.82,1.1,3.94,1.38,5.98
			c1.38,10.13,6.46,19.72,14.08,26.54c5.34,4.79,12.76,8.32,19.61,6.17c3.43-1.08,6.3-3.48,8.78-6.09
			c10.26-10.81,15.18-26.45,12.96-41.19c-3-19.84,3.32-38.58,5.42-58.54c0.71-6.74,1.48-13.55,3.7-19.96
			c2.23-6.41,6.07-12.46,11.78-16.13c4.32-9.09,12.9-15.18,22.51-18.18c9.6-3,19.81-3.31,29.86-3.6c8.01-0.23,16.02-0.45,24.02-0.68
			c8.39-0.24,16.85-0.47,25.14,0.84c18.77,2.97,35.33,13.56,53.13,20.22c31.73,11.86,67.08,15.29,100.47,9.46
			c7.67-1.34,9.88-6.36,15.54-11.41c5.53-4.93,11.78-9.05,18.46-12.25c13.35-6.41,28.51-9.18,43.24-7.38
			C467.34,389.53,465.13,380.98,470.64,374.77z"/>
	</defs>
	<clipPath id="SVGID_00000155124695916525392640000015205213003575285663_">
		<use xlink:href="#SVGID_00000052816470879262804430000008140148566525503113_"  style="overflow:visible;"/>
	</clipPath>
	
		<use xlink:href="#SVGID_00000052816470879262804430000008140148566525503113_"  style="overflow:visible;fill:none;stroke:#FFFFFF;stroke-width:0.5;stroke-miterlimit:10;"/>
</g>
<g>
	<text transform="matrix(1 0 0 1.0001 267.4828 699.937)" class="st4 st5 st6">129 kg</text>
</g>
<g>
	<text transform="matrix(1 0 0 1 6.2797 98.3745)"><tspan x="0" y="0" class="st0 st7 st8">Adult Tiger</tspan><tspan x="0" y="38.4" class="st0 st7 st8">(6-7 years old)</tspan></text>
</g>
<g>
	<text transform="matrix(1 0 0 1 502.7216 98.3745)" class="st0 st7 st8">Males </text>
</g>
<g>
	<text transform="matrix(1 0 0 1 172.1557 361.3276)" class="st0 st7 st8">Females </text>
</g>
<g>
	<g>
		<line class="st9" x1="705.04" y1="277.67" x2="344.24" y2="171.65"/>
		<g>
			<polygon class="st10" points="698.96,263.09 696.37,264.63 703.93,277.34 690.7,283.95 692.04,286.63 708.16,278.58 			"/>
		</g>
		<g>
			<polygon class="st10" points="357.23,162.68 358.58,165.37 345.34,171.98 352.9,184.69 350.32,186.23 341.12,170.73 			"/>
		</g>
	</g>
</g>
<g>
	<g>
		<line class="st9" x1="499.33" y1="549" x2="128.25" y2="446.09"/>
		<g>
			<polygon class="st10" points="493.03,534.52 490.47,536.09 498.22,548.69 485.08,555.5 486.47,558.16 502.46,549.86 			"/>
		</g>
		<g>
			<polygon class="st10" points="141.11,436.92 142.49,439.59 129.36,446.39 137.11,459 134.55,460.57 125.11,445.22 			"/>
		</g>
	</g>
</g>
<g>
	<polygon class="st0" points="594.42,606.74 750.51,606.74 730.44,502.28 614.49,502.28 	"/>
	<circle class="st1" cx="672.47" cy="502.89" r="28.64"/>
</g>
<g>
	<text transform="matrix(1 0 0 1.0001 619.4853 597.3901)" class="st4 st5 st6">189 kg</text>
</g>
<text transform="matrix(1 0 0 1.0001 497.25 206.686)" class="st10 st5 st11">199 cm</text>
<g>
	<text transform="matrix(1 0 0 1.0001 284.8887 484.6147)" class="st10 st5 st11">182 cm</text>
</g>
<g>
	<text transform="matrix(1 0 0 1.0001 6.2797 44.3687)" class="st5 st12">Size</text>
</g>
</svg>
