<?xml version="1.0" encoding="utf-8"?>
<!-- Generator: Adobe Illustrator 26.5.0, SVG Export Plug-In . SVG Version: 6.00 Build 0)  -->
<svg version="1.1" id="Layer_1" xmlns="http://www.w3.org/2000/svg" xmlns:xlink="http://www.w3.org/1999/xlink" x="0px" y="0px"
	 viewBox="0 0 1925 1621" style="enable-background:new 0 0 1925 1621;" xml:space="preserve">
<style type="text/css">
	.st0{fill:none;stroke:#231F20;stroke-width:0.5;stroke-miterlimit:10;}
	.st1{fill:#FFFFFF;}
	.st2{fill:#231F20;}
	.st3{font-family:'Roboto-Regular';}
	.st4{font-size:28.3492px;}
	.st5{fill:none;stroke:#B21F24;stroke-width:4;stroke-miterlimit:10;}
	.st6{fill:#B21F24;}
	.st7{font-size:34.0034px;}
	.st8{fill:none;}
	.st9{fill:none;stroke:#000000;stroke-miterlimit:10;}
	.st10{fill:#80966A;}
	.st11{fill:#FFF100;}
	.st12{font-size:33.0741px;}
	.st13{font-size:33.159px;}
	.st14{font-family:'Roboto-Bold';}
	.st15{font-size:46.0046px;}
	.st16{fill:none;stroke:#4B8044;stroke-width:10;stroke-miterlimit:10;}
</style>
<image style="overflow:visible;enable-background:new    ;" width="1922" height="1203" xlink:href="7966AE8F7209A3DA.png"  transform="matrix(1 0 0 1 -2 396)">
</image>
<rect x="1235.2" y="971.2" width="14.8" height="14.8"/>
<rect x="943.4" y="945.9" width="14.8" height="14.8"/>
<rect x="1039.6" y="658.9" width="14.8" height="14.8"/>
<rect x="812.8" y="732.9" width="14.8" height="14.8"/>
<g>
	<g>
		<polygon class="st0" points="1291.7,461.6 1232.8,461.6 1232.8,467.7 1291.7,467.7 1350.6,467.7 1350.6,461.6 		"/>
		<g>
			<rect x="1232.8" y="461.6" class="st1" width="117.8" height="6.1"/>
			<rect x="1291.7" y="461.6" class="st2" width="58.9" height="6.1"/>
		</g>
	</g>
	<g>
		<text transform="matrix(0.9999 0 0 1 1253.2744 450.9272)" class="st3 st4">20 km</text>
	</g>
</g>
<image style="overflow:visible;" width="170" height="178" xlink:href="7966AE8F7209A3DE.jpg"  transform="matrix(1 0 0 1 1188 194)">
</image>
<g>
	<g>
		<line class="st5" x1="1209.3" y1="868.2" x2="1382.8" y2="868.2"/>
		<g>
			<path class="st6" d="M1213.7,868.2l5.3-8.7l-0.3-0.2l-14.1,5.6c-4.9,1.1-9.8,2.2-14.7,3.2c4.9,1.1,9.8,2.2,14.7,3.2l14.1,5.6
				l0.3-0.2L1213.7,868.2z"/>
		</g>
		<g>
			<path class="st6" d="M1378.4,868.2l-5.3-8.7l0.3-0.2l14.1,5.6c4.9,1.1,9.8,2.2,14.7,3.2c-4.9,1.1-9.8,2.2-14.7,3.2l-14.1,5.6
				l-0.3-0.2L1378.4,868.2z"/>
		</g>
	</g>
</g>
<g>
	<text transform="matrix(0.9999 0 0 1 1084.1279 991.2539)" class="st3 st7">ChunHua</text>
</g>
<g>
	<text transform="matrix(0.9999 0 0 1 827.4668 960.6855)" class="st3 st7">FuXing</text>
</g>
<g>
	<text transform="matrix(0.9999 0 0 1 847.6787 678.6328)" class="st3 st7">LaoHeiShan</text>
</g>
<g>
	<text transform="matrix(0.9999 0 0 1 655.1797 752.6152)" class="st3 st7">LouZiGou</text>
</g>
<rect x="1491.4" y="1169.7" class="st8" width="322.2" height="292.1"/>
<text transform="matrix(0.9999 0 0 1 1491.4287 1195.2324)" class="st3 st7">From 2003 to 2016, </text>
<text transform="matrix(0.9999 0 0 1 1491.4287 1236.0264)" class="st3 st7">the tigers crossed </text>
<text transform="matrix(0.9999 0 0 1 1491.4287 1276.8311)" class="st3 st7">the China-Russian </text>
<text transform="matrix(0.9999 0 0 1 1491.4287 1317.625)" class="st3 st7">border into China </text>
<text transform="matrix(0.9999 0 0 1 1491.4287 1358.4287)" class="st3 st7">and penetrated </text>
<text transform="matrix(0.9999 0 0 1 1491.4287 1399.2227)" class="st3 st7">about 12 km every </text>
<text transform="matrix(0.9999 0 0 1 1491.4287 1440.0273)" class="st3 st7">three years.</text>
<path class="st9" d="M283.1,378.3c0,0,17,162,263,162"/>
<path class="st9" d="M553.6,1252.7c0.5-0.8,108.8-191.2,394.2-191.2"/>
<rect x="72.8" y="223" class="st10" width="390.4" height="155.6"/>
<rect x="259.5" y="1246.2" class="st11" width="445.4" height="160.6"/>
<g>
	<rect x="88.4" y="242.3" class="st8" width="388.5" height="136.3"/>
	<text transform="matrix(0.9999 0 0 1 88.4043 267.1152)" class="st1 st3 st12">General control area </text>
	<text transform="matrix(0.9999 0 0 1 88.4043 306.7993)" class="st1 st3 st12">which will be opened to </text>
	<text transform="matrix(0.9999 0 0 1 88.4043 346.4834)" class="st1 st3 st12">the public eventually.</text>
</g>
<g>
	<rect x="275.5" y="1264.2" class="st8" width="414.1" height="142.7"/>
	<text transform="matrix(0.9999 0 0 1 275.4507 1288.958)" class="st3 st12">Core protection area. Only </text>
	<text transform="matrix(0.9999 0 0 1 275.4507 1328.6426)" class="st3 st12">scientific research and </text>
	<text transform="matrix(0.9999 0 0 1 275.4507 1368.3262)" class="st3 st12">surveillance will be allowed</text>
</g>
<g>
	<text transform="matrix(0.9999 0 0 1 614.5439 222.627)" class="st3 st13">National Park boundaries</text>
</g>
<g>
	<text transform="matrix(0.9999 0 0 1 614.5439 345.627)" class="st3 st13">General control area</text>
</g>
<g>
	<text transform="matrix(0.9999 0 0 1 702.3848 89.627)" class="st14 st15">NorthEast China Tiger</text>
	<text transform="matrix(0.9999 0 0 1 656.0146 144.8228)" class="st14 st15">and Leopard National Park</text>
</g>
<line class="st16" x1="592.1" y1="210.6" x2="560.5" y2="210.6"/>
<rect x="560.5" y="310.8" class="st10" width="38" height="38"/>
<g>
	<text transform="matrix(0.9999 0 0 1 614.6338 283.627)" class="st3 st13">Core protection area</text>
</g>
<rect x="560.5" y="248.8" class="st11" width="38" height="38"/>
</svg>
