<?xml version="1.0" encoding="utf-8"?>
<!-- Generator: Adobe Illustrator 26.5.0, SVG Export Plug-In . SVG Version: 6.00 Build 0)  -->
<svg version="1.1" id="Layer_1" xmlns="http://www.w3.org/2000/svg" xmlns:xlink="http://www.w3.org/1999/xlink" x="0px" y="0px"
	 viewBox="0 0 805 1456" style="enable-background:new 0 0 805 1456;" xml:space="preserve">
<style type="text/css">
	@import url('https://fonts.googleapis.com/css?family=Roboto:300,400,700');;
	.st0{fill:#FFFFFF;}
	.st1{fill:none;stroke:#231F20;stroke-width:0.5;stroke-miterlimit:10;}
	.st2{fill:#231F20;}
	.st3{font-family:'Roboto';font-weight: 300;}
	.st4{font-size:24.4704px;}
	.st5{font-size:28.1541px;}
	.st6{fill:none;}
	.st7{font-size:34.0034px;}
	.st8{fill:#80966A;}
	.st9{fill:#FFF100;}
	.st10{font-size:33.159px;}
	.st11{font-family:'Roboto';font-weight: 700;}
	.st12{font-size:46.0046px;}
	.st13{fill:none;stroke:#4B8044;stroke-width:10;stroke-miterlimit:10;}
	.st14{fill:none;stroke:#000000;stroke-width:2;stroke-miterlimit:10;}
</style>
<image style="overflow:visible;enable-background:new    ;" width="810" height="782" xlink:href="B92A5F82D3B9EB79.jpg"  transform="matrix(1 0 0 1 2 389)">
</image>
<g>
	<rect x="619.4" y="977.8" class="st0" width="189" height="200"/>
</g>
<rect x="635.9" y="764.1" width="9.6" height="9.6"/>
<rect x="445.7" y="747.6" width="9.6" height="9.6"/>
<rect x="508.4" y="560.6" width="9.6" height="9.6"/>
<rect x="360.6" y="608.8" width="9.6" height="9.6"/>
<g>
	<g>
		<polygon class="st1" points="672.6,432.1 634.2,432.1 634.2,436 672.6,436 711,436 711,432.1 		"/>
		<g>
			<rect x="634.2" y="432.1" class="st0" width="76.8" height="4"/>
			<rect x="672.6" y="432.1" class="st2" width="38.4" height="4"/>
		</g>
	</g>
	<g>
		<text transform="matrix(0.9999 0 0 1 639.3418 425.0991)" class="st3 st4">20 km</text>
	</g>
</g>
<image style="overflow:visible;enable-background:new    ;" width="169" height="178" xlink:href="B92A5F82D3B9EB7E.jpg"  transform="matrix(1 0 0 1 635 993)">
</image>
<g>
	<text transform="matrix(0.9999 0 0 1 512.7251 777.127)" class="st3 st5">Chunhua</text>
</g>
<g>
	<text transform="matrix(0.9999 0 0 1 351.6675 757.2109)" class="st3 st5">Fuzing</text>
</g>
<g>
	<text transform="matrix(0.9999 0 0 1 351.0884 573.4512)" class="st3 st5">Laoheishan</text>
</g>
<g>
	<text transform="matrix(0.9999 0 0 1 232.1162 621.6523)" class="st3 st5">Louzigou</text>
</g>
<rect x="386.2" y="1196.7" class="st6" width="397.1" height="292.1"/>
<text transform="matrix(0.9999 0 0 1 386.2241 1222.1963)" class="st3 st7">From 2003 to 2016, the </text>
<text transform="matrix(0.9999 0 0 1 386.2241 1262.9912)" class="st3 st7">tigers crossed the </text>
<text transform="matrix(0.9999 0 0 1 386.2241 1303.7949)" class="st3 st7">China-Russian border into </text>
<text transform="matrix(0.9999 0 0 1 386.2241 1344.5889)" class="st3 st7">China and penetrated </text>
<text transform="matrix(0.9999 0 0 1 386.2241 1385.3926)" class="st3 st7">about 12 km every three </text>
<text transform="matrix(0.9999 0 0 1 386.2241 1426.1875)" class="st3 st7">years.</text>
<rect x="469.4" y="169.8" class="st8" width="305" height="197"/>
<rect x="7.3" y="1196.2" class="st9" width="341.1" height="233.6"/>
<g>
	<rect x="496.4" y="190.8" class="st6" width="264" height="228"/>
	<text transform="matrix(0.9999 0 0 1 496.3726 216.271)" class="st0 st3 st7">General control </text>
	<text transform="matrix(0.9999 0 0 1 496.3726 257.0649)" class="st0 st3 st7">area which will </text>
	<text transform="matrix(0.9999 0 0 1 496.3726 297.8691)" class="st0 st3 st7">be opened to the </text>
	<text transform="matrix(0.9999 0 0 1 496.3726 338.6631)" class="st0 st3 st7">public eventually.</text>
</g>
<g>
	<rect x="35.2" y="1214.1" class="st6" width="290.1" height="208.7"/>
	<text transform="matrix(0.9999 0 0 1 35.2466 1239.6191)" class="st3 st7">Core protection </text>
	<text transform="matrix(0.9999 0 0 1 35.2466 1280.4141)" class="st3 st7">area. Only </text>
	<text transform="matrix(0.9999 0 0 1 35.2466 1321.2178)" class="st3 st7">scientific research </text>
	<text transform="matrix(0.9999 0 0 1 35.2466 1362.0117)" class="st3 st7">and surveillance </text>
	<text transform="matrix(0.9999 0 0 1 35.2466 1402.8154)" class="st3 st7">will be allowed.</text>
</g>
<g>
	<text transform="matrix(0.9999 0 0 1 62.3394 227.5918)" class="st3 st10">National Park boundaries</text>
</g>
<g>
	<text transform="matrix(0.9999 0 0 1 62.3394 350.5918)" class="st3 st10">General control area</text>
</g>
<g>
	<text transform="matrix(0.9999 0 0 1 150.1807 83.5918)" class="st11 st12">Northeast China Tiger</text>
	<text transform="matrix(0.9999 0 0 1 103.811 138.7871)" class="st11 st12">and Leopard National Park</text>
</g>
<line class="st13" x1="39.9" y1="215.6" x2="8.3" y2="215.6"/>
<rect x="8.3" y="315.8" class="st8" width="38" height="38"/>
<g>
	<text transform="matrix(0.9999 0 0 1 62.4292 288.5918)" class="st3 st10">Core protection area</text>
</g>
<rect x="8.3" y="253.8" class="st9" width="38" height="38"/>
<g>
	<g>
		<path class="st14" d="M469.4,366.8c0,0-56.6,31.9-62,143"/>
		<g>
			<path d="M399.9,509.4c-0.2,4.1,3,7.7,7.1,7.9s7.7-3,7.9-7.1c0.2-4.1-3-7.7-7.1-7.9S400.1,505.3,399.9,509.4z"/>
		</g>
	</g>
</g>
<g>
	<g>
		<path class="st14" d="M262.4,1195.8c0,0,18.4-218,156-357"/>
		<g>
			<path d="M423.7,844.1c2.9-3,2.9-7.7,0-10.6c-3-2.9-7.7-2.9-10.6,0s-2.9,7.7,0,10.6C416,847,420.8,847,423.7,844.1z"/>
		</g>
	</g>
</g>
</svg>
