<?xml version="1.0" encoding="utf-8"?>
<!-- Generator: Adobe Illustrator 27.0.0, SVG Export Plug-In . SVG Version: 6.00 Build 0)  -->
<svg version="1.1" id="Layer_1" xmlns="http://www.w3.org/2000/svg" xmlns:xlink="http://www.w3.org/1999/xlink" x="0px" y="0px"
	 viewBox="0 0 805 1031" style="enable-background:new 0 0 805 1031;" xml:space="preserve">
<style type="text/css">
	.st0{font-family:'Roboto-Bold';}
	.st1{font-size:46px;}
	.st2{fill:none;}
	.st3{fill:#231F20;}
	.st4{font-family:'Roboto-Regular';}
	.st5{font-size:32px;}
	.st6{fill:none;stroke:#231F20;stroke-width:0.7;stroke-miterlimit:10;}
	.st7{fill:#F2D5A9;}
	.st8{font-family:'BentonSans-Regular';}
	.st9{font-size:40px;}
</style>
<image style="overflow:visible;" width="718" height="480" xlink:href="8A35D8CB4C2F1BC1.jpg"  transform="matrix(1 0 0 1 75 101)">
</image>
<g>
	<text transform="matrix(1 0 0 1.0001 2.8237 70.7273)" class="st0 st1">Tongue</text>
</g>
<g>
	<rect x="3.72" y="304" class="st2" width="214.88" height="332"/>
	<text transform="matrix(1 0 0 1 3.7222 327.9998)"><tspan x="0" y="0" class="st3 st4 st5">The tiger&apos;s </tspan><tspan x="0" y="38.4" class="st3 st4 st5">tongue is </tspan><tspan x="0" y="76.8" class="st3 st4 st5">covered with </tspan><tspan x="0" y="115.2" class="st3 st4 st5">numerous </tspan><tspan x="0" y="153.6" class="st3 st4 st5">small, sharp, </tspan><tspan x="0" y="192" class="st3 st4 st5">rear-facing </tspan><tspan x="0" y="230.4" class="st3 st4 st5">projections </tspan><tspan x="0" y="268.8" class="st3 st4 st5">called papillae.</tspan></text>
</g>
<g>
	<path class="st6" d="M557.3,849.28c1.12-1.85,2.85-3.32,4.85-4.14c2.09-0.85,4.4-0.98,6.65-1.08c24.81-1.12,49.69-0.62,74.44,1.5
		c3.14,0.27,6.92,1.05,7.92,4.03"/>
	<path class="st7" d="M625.74,861.96c-4.17-1.85-9.23-2.25-13.19,0.01c-1.99,1.14-3.57,2.86-5.44,4.19
		c-1.87,1.33-4.27,2.27-6.44,1.52c-2.4-0.82-3.73-3.4-5.86-4.78c-1.46-0.95-3.23-1.29-4.97-1.48c-4.81-0.53-10,0.08-13.84,3.03
		c-3.96,3.04-5.89,8.14-6.2,13.11c-0.32,4.98,0.79,9.92,1.88,14.79c1.66,7.36,3.31,14.73,4.97,22.09
		c2.87,12.77,5.82,25.74,12.22,37.16c2.34,4.18,5.32,8.27,9.63,10.35c6.38,3.08,14.38,0.87,19.67-3.84
		c5.29-4.71,8.31-11.46,10.38-18.23c4.72-15.42,5.27-31.63,7.78-47.46c0.97-6.11,3.16-10.99,1.14-17.15
		C635.56,869.49,631.34,864.43,625.74,861.96z"/>
	<path class="st6" d="M625.74,861.96c-4.17-1.85-9.23-2.25-13.19,0.01c-1.99,1.14-3.57,2.86-5.44,4.19
		c-1.87,1.33-4.27,2.27-6.44,1.52c-2.4-0.82-3.73-3.4-5.86-4.78c-1.46-0.95-3.23-1.29-4.97-1.48c-4.81-0.53-10,0.08-13.84,3.03
		c-3.96,3.04-5.89,8.14-6.2,13.11c-0.32,4.98,0.79,9.92,1.88,14.79c1.66,7.36,3.31,14.73,4.97,22.09
		c2.87,12.77,5.82,25.74,12.22,37.16c2.34,4.18,5.32,8.27,9.63,10.35c6.38,3.08,14.38,0.87,19.67-3.84
		c5.29-4.71,8.31-11.46,10.38-18.23c4.72-15.42,5.27-31.63,7.78-47.46c0.97-6.11,3.16-10.99,1.14-17.15
		C635.56,869.49,631.34,864.43,625.74,861.96z"/>
	<path class="st6" d="M637.21,855.55c0.73,1.06,2.13,1.62,3.39,1.36c1.26-0.26,1.81-1.24,2.07-2.5c1.35,0.19,2.64-0.83,3.23-2.06
		c0.58-1.24,0.62-2.65,0.65-4.01"/>
	<path class="st6" d="M562.87,846.08c-0.4,2.72-0.15,5.54,0.74,8.14c0.26,0.77,0.61,1.56,1.28,2.01c0.67,0.46,1.74,0.4,2.13-0.3"/>
	<path class="st6" d="M566.99,855.55c0.9,0.98,1.88,1.99,3.16,2.33c1.28,0.34,2.92-0.3,3.15-1.61"/>
	<path class="st6" d="M637.88,855.47c0.43,1.73-1.82,3.16-3.51,2.62c-1.69-0.54-2.72-2.25-3.36-3.91"/>
	<path class="st6" d="M573.38,856.59c0.11,1.52,1.64,2.79,3.15,2.62s2.73-1.73,2.5-3.24"/>
	<path class="st6" d="M630.54,854.96c-2.2,2.93-8.1,2.11-9.56-0.99"/>
	<path class="st6" d="M579.54,855.94c0.01,0.34,0.02,0.68,0.04,1.01c1.87,0.63,3.82,1.2,5.8,1.07c1.97-0.12,4-1.06,4.94-2.8"/>
	<path class="st6" d="M620.11,855.06c0.36,0.96-0.31,2.07-1.21,2.55c-0.91,0.49-1.98,0.52-3.01,0.53c-3.15,0.05-6.31,0.1-9.46,0.15
		c-0.44,0.01-0.91,0.01-1.27-0.24c-0.36-0.24-0.53-0.83-0.2-1.12"/>
	<path class="st6" d="M589.75,855.94c0.17,1.84,2.21,3.26,3.99,2.79c1.8-0.47,3.02,0.25,4.88,0.36c2.45,0.15,5.47,0.01,6.6-2.18"/>
	<path class="st6" d="M604.69,856.96c0.64-3.04,1.04-6.13,1.18-9.24"/>
	<path class="st6" d="M590.44,855.61c-0.14-2.85-0.1-5.72,0.11-8.56"/>
	<path class="st6" d="M579.25,855.94c-0.18-3.18-0.07-6.37,0.34-9.53"/>
	<path class="st6" d="M573.72,856.58c-0.91-3.52-1.02-7.25-0.31-10.81"/>
	<path class="st6" d="M567.31,855.28c0.09-3.01,0.18-6.01,0.28-9.02c0.02-0.54,0.26-1.27,0.79-1.17"/>
	<path class="st6" d="M620.43,854.94c-0.52-3.03-0.53-6.15-0.04-9.19"/>
	<path class="st6" d="M630.87,854.13c0.14-2.02,0.29-4.05,0.43-6.07c-0.17,2.54-0.39,3.44-0.55,5.99
		C631.33,854.19,630.31,854.33,630.87,854.13z"/>
	<path class="st6" d="M638.48,848.06c-0.55,2.51-0.79,5.09-0.73,7.65c0.12-0.25,0.23-0.5,0.35-0.76"/>
	<path class="st6" d="M642.61,853.61c0.51-1.91,0.78-3.88,0.8-5.85c0.31-0.02,0.63-0.04,0.94-0.07"/>
	<path class="st6" d="M603.41,875.68c-0.35,10.19-0.7,20.38-1.05,30.58"/>
	<path class="st6" d="M564.78,867.9c1.33,3.68,2.66,7.36,4,11.04c0.14,0.38,0.25,0.87-0.06,1.13"/>
	<path class="st6" d="M643.02,866.47c0.14,5.98-1.48,11.99-4.62,17.08"/>
	<path class="st6" d="M657.9,851.02c-0.5-6.92-5.84-12.76-12.1-15.77s-13.34-3.7-20.26-4.2c-10.79-0.78-21.6-1.21-32.42-1.29
		c-9.88-0.07-20.15,0.24-28.94,4.74s-15.57,14.44-13.3,24.05"/>
	<path class="st6" d="M576.74,919.36c-7.6-17.94-15.54-35.74-23.83-53.38"/>
	<path class="st6" d="M632.57,922.08c8.59-18.17,16.17-36.81,22.71-55.81"/>
	<path class="st6" d="M650.54,945.74c-4.95,8.05-10.42,16.57-19.08,20.36c-5.51,2.41-11.7,2.6-17.71,2.75
		c-6.47,0.16-12.94,0.31-19.41,0.1c-3.98-0.13-8.08-0.42-11.67-2.17c-7.72-3.78-10.83-13.01-16.68-19.3"/>
	<path class="st6" d="M561.32,811.8c-12.83,9.16-21.99,21.72-20.92,38.22"/>
	<path class="st6" d="M653.49,812.54c3.03,6.71,6.07,13.47,7.89,20.6s2.38,14.74,0.41,21.83"/>
	<path class="st6" d="M558.95,906.56c-3.78-12.15-7.57-24.3-11.35-36.46"/>
	<path class="st6" d="M654.31,899.38c1.89-10.17,3.53-20.39,4.92-30.64"/>
</g>
<g>
	<path class="st6" d="M251.94,749.23c-1.53,11.91-2.19,23.94-1.98,35.95c0.03,1.6,0.1,3.31,1.02,4.63c1.76,2.52,5.83,2.25,8.17,0.26
		c2.34-1.99,3.38-5.08,4.31-8c3.62-11.32,7.23-22.63,10.85-33.95"/>
	<path class="st6" d="M380.58,755.19c1.76,15.54,0.89,31.38-2.56,46.64c-0.74,3.28-1.6,6.53-2.42,9.79
		c-0.14,0.56-0.27,1.21,0.07,1.68c0.29,0.41,0.83,0.54,1.33,0.63c3.24,0.58,6.81,0.58,9.55-1.24c2.51-1.67,3.88-4.55,5.14-7.28
		c7.19-15.68,14.51-31.98,14.46-49.22"/>
	<path class="st6" d="M369.99,745.1c0.93,1.53,2.17,2.85,3.44,4.11c2.75,2.73,5.71,5.25,8.85,7.52"/>
	<path class="st6" d="M381.78,753.12c-1.17-1.31-2.11-2.83-2.74-4.47c4.1,3.18,8.38,7.15,9.23,12.28"/>
	<path class="st6" d="M385.35,747.16c3.49,3.9,6.21,8.47,7.97,13.4"/>
	<path class="st6" d="M392.17,748.69c1.9,2.92,4.27,5.53,6.98,7.71"/>
	<path class="st6" d="M403.31,756.73c-1.09-1.9-1.98-3.92-2.67-6c6.07,8.89,15.88,15.96,22.78,24.23"/>
	<path class="st6" d="M411.79,758.21c-0.22-2.09-0.44-4.19-0.66-6.28C412.24,754.03,411.1,755.94,411.79,758.21z"/>
	<path class="st6" d="M418.54,749.87c4.27,7.07,7.29,14.89,8.88,22.99"/>
	<path class="st6" d="M425.72,748.63c10.46,13.16,18.9,27.91,24.94,43.6"/>
	<path class="st6" d="M442.77,754.49c-4.2-6.63-10.74-11.35-17.13-15.9c-1.32-0.94-2.74-1.91-4.35-1.95"/>
	<path class="st6" d="M363.77,748.97c0.5,0.7,1,1.4,1.5,2.1"/>
	<path class="st6" d="M286.56,741.75c-2.24,1.25-7.62,0.42-9.34,2.33c1.41-1.29,2.81-2.58,4.22-3.86"/>
	<path class="st6" d="M287.67,745.56c3.12-3.24,6.97-5.78,11.18-7.36"/>
	<path class="st6" d="M298.83,746.24c3.3-3.07,7.2-5.5,11.41-7.12"/>
	<path class="st6" d="M310.47,744.11c1.59-1.71,3.18-3.41,4.76-5.12"/>
	<path class="st6" d="M299.97,741.67c1.61-1.31,3.47-2.3,5.46-2.9"/>
	<path class="st6" d="M359.24,748.97c-1.1-2.46-2.42-4.82-3.91-7.06"/>
	<path class="st6" d="M317.4,745.64c1.78-1.46,3.66-2.8,5.63-3.99"/>
	<path class="st6" d="M354.94,749.9c-0.95-2.75-1.89-5.49-2.84-8.24"/>
	<path class="st6" d="M331.26,746.56c0.62-2.42,2.37-4.52,4.63-5.57"/>
	<path class="st6" d="M370.43,752.2c-0.85-0.97-1.87-1.79-2.99-2.43"/>
	<path class="st6" d="M350.33,748.04c-0.3-0.7-0.6-1.4-0.9-2.1"/>
	<path class="st6" d="M342.52,748.02c1.2-2.49,2.4-4.99,3.6-7.48"/>
	<path class="st6" d="M326.69,745.35c1.56-1.93,3.36-3.66,5.36-5.13"/>
	<path class="st6" d="M315.28,743.22c0.89-0.62,1.77-1.23,2.66-1.85"/>
	<path class="st6" d="M295.5,743.18c2.03-1.42,3.97-2.99,5.78-4.67"/>
	<path class="st6" d="M278.65,737.69c-4.25,3.18-8.12,6.86-11.53,10.92c-2.24,2.67-4.32,5.56-7.12,7.63"/>
	<path class="st6" d="M417.7,766c0.08-5.03-0.36-10.07-1.31-15.01"/>
	<path class="st6" d="M267.56,736.17c-4.91,7.43-8.2,15.92-9.59,24.72"/>
	<path class="st6" d="M407.57,755.8c-0.68-1.6-1.36-3.21-2.04-4.81"/>
	<path class="st6" d="M265.13,735.62c-3.85,3.47-7.83,7.11-9.77,11.92c-0.76,1.9-1.18,3.92-1.6,5.92"/>
	<path class="st6" d="M428.17,758.82c-1.8-2.37-3.89-4.52-6.21-6.38"/>
	<path class="st6" d="M250.92,735.46c-6.21,10.57-10.42,22.32-12.33,34.43"/>
	<path class="st6" d="M369.22,753.13c0.52,1.22-0.02,2.79-1.18,3.44c-0.58,0.32-1.27,0.42-1.93,0.48c-1.2,0.1-2.52,0.05-3.42-0.75
		c-1.23-1.09-1.13-3.09-2.16-4.37"/>
	<path class="st6" d="M316.21,746.54c-0.55,2.49-2.57,4.61-5.04,5.25c-0.9,0.24-1.89,0.28-2.75-0.1c-1.83-0.81-2.35-3.12-2.63-5.11
		c-0.1-0.69-0.12-1.54,0.47-1.9"/>
	<path class="st6" d="M328.47,748.64c0.01,0.98,0.03,1.96,0.04,2.95c1.3-0.19,2.61,0.52,3.92,0.38c1.85-0.19,3.21-2.33,2.6-4.08"/>
	<path class="st6" d="M347.66,751.58c0.86,2.25,3.42,3.55,5.82,3.4c2.4-0.15,4.59-1.54,6.21-3.33"/>
	<path class="st6" d="M317.98,746.87c0.21,1.58,1.33,3.01,2.81,3.59c1.49,0.58,3.28,0.3,4.51-0.72c1.04-0.86,1.85-2.26,3.2-2.31"/>
	<path class="st6" d="M336.52,749.62c-0.39,1.41,0.57,2.92,1.86,3.59c1.3,0.67,2.83,0.67,4.28,0.52c0.27-0.03,0.57-0.07,0.75-0.27
		c0.17-0.18,0.21-0.45,0.24-0.7c0.12-1.07,0.14-2.15,0.06-3.23"/>
	<path class="st7" d="M260.39,789.89c1.93-6.16,5.4-11.67,7.35-18.12c1.58-5.23,2.69-11.08,6.85-14.61
		c7.02-5.97,18.49-3.96,26.84-3.59c11.17,0.49,22.33,0.99,33.5,1.48c4.68,0.21,9.45,0.43,13.85,2.07
		c16.25,6.05,12.76,22.7,17.23,35.81c2.9,8.51,6.23,17.23,5.5,26.19c-0.38,4.7-1.87,9.23-2.78,13.85
		c-2.58,13.07-0.55,26.56,1.49,39.73c2.25,14.56,4.74,31.96,1.47,46.56c-2.73,12.19-8.92,26.61-17.36,35.99
		c-2.24,2.49-4.78,4.74-7.7,6.37c-7.36,4.1-15.77,4.37-23.95,4.86c-6.64,0.4-13.45-0.08-20.1-0.13c-2.86-0.02-5.74-0.04-8.52-0.69
		c-7.39-1.74-13.01-7.63-17.77-13.54c-5.08-6.3-10.04-13.49-10.6-21.8c-0.57-8.5-3.56-16.74-5.02-25.23
		c-4.49-26.12,3.24-52.86,1.45-79.3c-0.64-9.39-3.38-18.58-3.1-28.04C259.08,794.95,259.61,792.36,260.39,789.89z"/>
	<path class="st6" d="M260.39,789.89c1.93-6.16,5.4-11.67,7.35-18.12c1.58-5.23,2.69-11.08,6.85-14.61
		c7.02-5.97,18.49-3.96,26.84-3.59c11.17,0.49,22.33,0.99,33.5,1.48c4.68,0.21,9.45,0.43,13.85,2.07
		c16.25,6.05,12.76,22.7,17.23,35.81c2.9,8.51,6.23,17.23,5.5,26.19c-0.38,4.7-1.87,9.23-2.78,13.85
		c-2.58,13.07-0.55,26.56,1.49,39.73c2.25,14.56,4.74,31.96,1.47,46.56c-2.73,12.19-8.92,26.61-17.36,35.99
		c-2.24,2.49-4.78,4.74-7.7,6.37c-7.36,4.1-15.77,4.37-23.95,4.86c-6.64,0.4-13.45-0.08-20.1-0.13c-2.86-0.02-5.74-0.04-8.52-0.69
		c-7.39-1.74-13.01-7.63-17.77-13.54c-5.08-6.3-10.04-13.49-10.6-21.8c-0.57-8.5-3.56-16.74-5.02-25.23
		c-4.49-26.12,3.24-52.86,1.45-79.3c-0.64-9.39-3.38-18.58-3.1-28.04C259.08,794.95,259.61,792.36,260.39,789.89z"/>
	<path class="st6" d="M262.36,829.06c0.35-1.76,0.69-3.63,0.05-5.31s-2.64-2.98-4.25-2.19c-2.31,3.95-4.63,7.92-6.11,12.25
		c-1.16,3.37-1.79,6.89-2.41,10.4c-0.66,3.69-1.32,7.38-1.97,11.07c-0.6,3.36-1.2,6.78-0.8,10.17c0.73,6.21,4.48,10.24,10.2,12.77
		c0.56-0.67,1.13-1.34,1.69-2.01"/>
	<path class="st6" d="M227.87,770.21c0.16,7.22,2.4,14.38,6.38,20.41c3.54,5.35,8.35,9.72,12.42,14.68
		c4.07,4.96,7.51,10.89,7.48,17.31"/>
	<path class="st6" d="M205.65,753.8c-2.57,20.4-0.59,42.48,11.48,59.13c5.06,6.97,13.43,12.64,19.81,18.53
		c4.57,4.22,9.41,8.94,10.26,15.1"/>
	<path class="st6" d="M207.79,807.06c1.46,16.99,2.11,34.05,1.95,51.1c-0.07,7.29-0.27,14.71,1.72,21.73s6.6,13.71,13.44,16.24
		c3.63,1.34,7.58,1.43,11.44,1.5c3.54,0.06,7.08,0.13,10.61,0.19"/>
	<path class="st6" d="M218.56,897.12c-2.64,4.64-6.06,8.84-10.08,12.37"/>
	<path class="st6" d="M225.49,900.14c-2.52,2.21-4.66,4.85-6.31,7.77"/>
	<path class="st6" d="M234.15,902.52c-2.32,3.98-4.64,7.95-6.97,11.93"/>
	<path class="st6" d="M238.67,903.14c-1.15,2.44-2.31,4.89-3.46,7.33c0.63-0.33,1.19-0.8,1.64-1.35"/>
	<path class="st6" d="M247.83,902.21c-0.51,2.09-1.26,4.12-2.22,6.05"/>
	<path class="st6" d="M252.43,904.03c-0.95,1.9-1.91,3.8-2.86,5.7c-0.1,0.19-0.19,0.42-0.1,0.62c0.1,0.19,0.48,0.16,0.45-0.05"/>
	<path class="st6" d="M255.42,907.62c0.08,0.61-0.03,1.24-0.31,1.79"/>
	<path class="st6" d="M315.96,770.21c-0.22,11.03-1.23,21.9-2.39,32.9c-1.78,16.83-0.46,33.57-0.85,50.32"/>
	<path class="st6" d="M253.27,916.61c-8.07,4.36-15.74,9.45-22.89,15.19"/>
	<path class="st6" d="M235.3,916.72c-9.47,8.51-18.54,17.48-27.15,26.86c-0.08-0.64-0.15-1.29-0.23-1.93"/>
	<path class="st6" d="M375.06,911.08c7.75,5.77,16.67,9.95,26.07,12.23"/>
	<path class="st6" d="M375.55,919.32c4.28,8.15,9.11,16.01,14.45,23.51"/>
	<path class="st6" d="M373.53,928.9c2.03,4.38,4.06,8.75,6.09,13.13"/>
	<path class="st6" d="M255.03,922.51c-3.28-0.11-6.15,2.03-8.73,4.06c-4.02,3.17-8.04,6.34-12.06,9.52
		c-3.85,3.04-7.7,6.08-11.55,9.11c-2.86,2.26-6.02,5.22-5.51,8.83"/>
	<path class="st6" d="M260.64,937.28c-8.68,11.6-16.48,23.86-23.34,36.62"/>
	<path class="st6" d="M370.42,934.05c4.14,8.24,9.36,15.93,15.47,22.83"/>
	<path class="st6" d="M267.26,940.36c-5.99,8.9-9.05,19.74-8.62,30.46c0.02,0.46,0.47,1.08,0.76,0.73"/>
	<path class="st6" d="M219.65,914.34c-8.74,5.68-17.02,12.07-24.71,19.1"/>
	<path class="st6" d="M363.6,947.79c17.71,0.75,35.52-0.98,52.76-5.11"/>
	<path class="st6" d="M381.18,957.94c-6.03-0.32-11.98-2.02-17.26-4.94c4.83,5.56,6.52,13.14,13.17,16.3
		c-0.35-0.32-0.69-0.64-1.04-0.96"/>
	<path class="st6" d="M356.3,959.3c5.14,7.38,11.04,14.22,17.59,20.38"/>
	<path class="st6" d="M342.97,993.94c-0.53-8.07-1.74-16.1-3.62-23.97"/>
	<path class="st6" d="M332.18,967.61c-0.57,9.47-1.18,18.93-1.85,28.39c-0.38-1.07-0.75-2.15-1.13-3.22"/>
	<path class="st6" d="M320.92,968c0.13,7.48-0.45,14.97-1.74,22.34"/>
	<path class="st6" d="M301.57,975.96c0.03,0.72,0.06,1.48-0.3,2.11c-0.36,0.62-1.26,0.99-1.82,0.54"/>
	<path class="st6" d="M207.59,950.33c6.11-1.55,12.45-2.23,18.76-2c-0.88,1.31-1.76,2.61-2.64,3.92c0.38,1.71,0.77,3.42,1.15,5.13
		c0.76-0.51,1.88,0.66,1.33,1.39c1.05-0.12,2.1-0.24,3.15-0.37c0.16,0.76-0.01,1.59-0.45,2.23c0.65-0.41,1.29-0.82,1.94-1.23
		c-0.6,1.51-1.2,3.02-1.8,4.53c0.97-1.23,2.16-2.3,3.48-3.15c0.24,0.73,0.23,1.53-0.03,2.25c1.37-1.27,2.75-2.54,4.12-3.81
		c0.06,1.54,0.12,3.08,0.18,4.62c1.13-0.97,2.25-1.93,3.38-2.9c0.03,1.77,0.06,3.54,0.09,5.31c1.74-0.48,3.48-0.97,5.22-1.45
		c-0.01,1.02-0.02,2.05-0.03,3.07c0.45-0.74,0.9-1.48,1.35-2.22c0.26,1.51,0.79,2.98,1.54,4.32c1.84-2,3.67-3.99,5.51-5.99
		c-0.11,2.19,0.52,4.41,1.77,6.22c0.71-0.59,1.42-1.17,2.13-1.76c0.28,1.43,0.85,2.8,1.68,4c2.03-1.77,4.29-3.29,6.7-4.51
		c0.36,1.23,0.72,2.46,1.09,3.69c1.37-1.5,2.82-3.05,4.75-3.67s4.45,0.09,5.09,2.01c0.48-0.42,0.97-0.83,1.45-1.25
		c-0.05,0.84,0.15,1.69,0.58,2.41c1.78-0.94,3.56-1.88,5.35-2.82c1.03,1.26,1.67,2.83,1.83,4.45c1.04-0.85,2.17,0.98,2.3,2.32
		c1.33-1.2,2.66-2.4,3.99-3.59c0.07,2.07,0.49,4.12,1.23,6.05c0.33-0.58,0.75-1.22,1.41-1.33s1.35,0.79,0.84,1.22
		c2.8-2.8,5.6-5.6,8.4-8.4c0.44,2.23,0.89,4.47,1.33,6.7c1.67-0.87,3.33-1.75,5-2.62c1.27,1.37,2.54,2.74,3.81,4.11
		c0.56,0.6,1.16,1.24,1.96,1.45c0.87,0.24,1.78-0.07,2.61-0.42c2.88-1.2,5.55-2.91,7.85-5.02c-0.22,1.29-0.12,2.63,0.28,3.87
		c0.75-0.63,1.5-1.26,2.25-1.89c1.51,0.45,3.3-0.6,3.64-2.14c0.97,0.47,1.66,1.46,1.78,2.52c0.8-0.87,1.6-1.74,2.4-2.61
		c3.89-1.05,7.23-3.99,8.75-7.72c1.66,0.84,3.63,1.04,5.43,0.57c1.08-3.73,4.15-6.52,7.27-8.84s6.49-4.47,8.68-7.69
		c2.18-3.21,2.8-7.9,0.23-10.82c1.25,0.4,2.55,0.65,3.86,0.74c0-1.61,0-3.22,0.01-4.83c0.8,0.01,1.6,0.01,2.4,0.02
		c-1.45-4.29,5.15-9.11,2.38-12.69c2.28-0.62,3.25-3.53,2.61-5.8c-0.64-2.27-2.41-4.02-4.11-5.66"/>
	<path class="st6" d="M205.12,941.72c-0.54,0.92-1.3,1.71-2.21,2.28c-0.72-1.7-1.17-3.52-1.31-5.36c-0.94,0.7-1.88,1.41-2.83,2.11
		c0.41-2.48,1.61-4.83,3.38-6.62c-0.84,0.46-1.69,0.92-2.53,1.38c1.23-5.04,8.31-5.83,11.54-9.89c-4.65,3.16-9.71,5.71-15.02,7.56
		c1.63-2.59,3.76-4.86,6.25-6.63c-1.56,0.96-3.11,1.92-4.67,2.88c2.73-3.26,6.13-5.96,9.93-7.88c-5.5,2.76-11.22,5.08-17.08,6.95
		c3.23-4.29,7.13-8.08,11.52-11.18c-1.68,0.28-3.25,1.21-4.29,2.56c2.53-2.21,5.06-4.41,7.59-6.62c-4.32,3.7-9.17,6.77-14.36,9.1
		c1.39-3.72,3.73-7.07,6.72-9.68c-0.46,0.28-0.93,0.56-1.39,0.84c1.44-2.06,3.22-3.88,5.25-5.38c-2.93,1.89-6.13,3.38-9.46,4.42
		c0.57-2.36,1.57-4.62,2.94-6.63c-2.32,2.37-5.22,4.15-8.37,5.16c0.36-2.41,1.99-4.58,4.2-5.61"/>
	<path class="st6" d="M204.8,942.68"/>
	<path class="st6" d="M376.18,893.48c-0.39-1.12-0.78-2.23-1.18-3.35c0.86,2.16,1.71,4.32,2.57,6.47
		c0.99-6.81,1.21-13.73,0.66-20.59c2.16,5.25,5.47,10.01,9.62,13.87c0.49-2.71,0.98-5.41,1.46-8.12c0.54,3.29,1.63,6.5,3.2,9.44
		c1.88-3.78,3.77-7.56,5.65-11.34c0.27,1.89,0.93,3.72,1.9,5.36c1.12-1.79,2.51-3.41,4.12-4.79c0.78,1.58,1.56,3.16,2.34,4.74
		c2-1.73,3.49-4.04,4.23-6.57c0.6,1.18,1.21,2.36,1.81,3.54c1.94-2.15,3.87-4.31,5.81-6.46c0.59,2.68,1.62,5.26,3.02,7.62
		c1.78-2.6,3.57-5.2,5.35-7.8c0.18,3.54,1.05,7.04,2.55,10.25c2.85-4.18,5.32-8.61,7.35-13.24c0.5,2.13,1.01,4.26,1.51,6.4
		c1.39-5.11,2.78-10.23,4.17-15.34c0.51,4.46,1.86,8.83,3.96,12.81c2.15-4.48,4.8-8.72,7.87-12.62c1.09,2.58,2.18,5.16,3.27,7.74
		c2.31-2.36,4.14-5.2,5.35-8.27c0.67,3.13,2.4,6.02,4.84,8.09c1.1-3.3,1.55-6.81,1.31-10.28c0.39,0.93,0.78,1.86,1.18,2.78
		c2.08-3.77,3.32-8.01,3.6-12.31c1.64,4.05,3.62,7.96,5.92,11.68c1.78-3.7,2.8-7.77,2.95-11.88c0.74,2.24,2.24,4.22,4.21,5.53
		c1.03-3.37,1.4-6.94,1.09-10.45c0.64,1.65,1.84,3.08,3.37,3.98c1.67-2.75,2.63-5.92,2.79-9.13c0.66,1.29,1.7,2.38,2.97,3.09
		c1.23-1.32,2.09-2.98,2.45-4.75c0.33,1.02,0.67,2.03,1,3.05c2.6-4.48,3.72-9.81,3.15-14.96"/>
	<path class="st6" d="M188.45,885.12c-0.6,1.28-2.25,1.96-3.58,1.47"/>
	<path class="st6" d="M196.67,872.29c-2.36,2.15-6.26,2.33-8.8,0.42"/>
	<path class="st6" d="M277.52,720.11c-6.44,10.51-12.26,21.39-17.42,32.58"/>
	<path class="st6" d="M258.26,713.56c-13.61,13.24-22.58,31.18-24.99,50.02"/>
	<path class="st6" d="M234.13,705.35c-3.55-0.1-5.99,3.34-8.53,5.82c-2.45,2.38-5.46,4.09-8.14,6.2
		c-7.18,5.65-11.86,14.38-12.6,23.49"/>
	<path class="st6" d="M431.66,730.21c7.12,3.77,14.36,7.62,20.05,13.32c5.46,5.47,9.29,12.55,10.89,20.12"/>
	<path class="st6" d="M453.83,719.88c44.2,13.08,87.53,29.09,129.62,47.88"/>
	<path class="st6" d="M457.54,709.39c23.72,8.84,47.59,17.26,71.61,25.25"/>
	<path class="st6" d="M470.57,704.45c31.33,5.43,62.66,10.86,93.99,16.29"/>
	<path class="st6" d="M356.12,737.15c2.52-3.11-0.71-8.35,1.68-11.56c0.69-0.92,1.74-1.5,2.76-2.03
		c6.26-3.27,12.77-6.16,18.58-10.18c11.07-7.64,19-18.91,26.7-29.94c4.02-5.75,8.12-11.68,9.79-18.5c1.32-5.4,1.04-11.05,0.5-16.58
		c-1.11-11.47-3.26-22.83-6.43-33.91"/>
	<path class="st6" d="M335.39,727.18c-10.41-17.02-20.82-34.04-31.23-51.06c-3.01-4.92-6.04-9.88-8.11-15.26
		c-1.84-4.79-2.89-9.85-3.65-14.92c-2.99-20.02-1.47-40.7,4.41-60.07"/>
	<path class="st6" d="M299.94,666.19c2.79-7.44,12.1-10.59,19.93-9.22c7.82,1.37,14.58,6.08,21.32,10.28
		c6.74,4.2,14.23,8.13,22.16,7.64c5.9-0.36,11.33-3.13,16.75-5.47c5.42-2.34,11.38-4.34,17.15-3.07c5.77,1.27,10.91,7.01,9.49,12.74
		"/>
	<path class="st6" d="M401.48,684.13c-1.22-1.53-3.41-2-5.32-1.63c-1.92,0.37-3.62,1.43-5.23,2.53
		c-7.55,5.17-14.18,11.68-19.48,19.13c-1.3,1.82-2.55,3.78-2.84,6s0.66,4.74,2.72,5.62c2.06,0.87,4.93-0.81,4.63-3.02"/>
	<path class="st6" d="M329.94,704.02c3,0.33,4.81-3.31,5.09-6.32c0.72-7.6-2.48-15.37-8.01-20.63c-5.53-5.26-13.22-8.05-20.85-8.09
		c-2.69-0.01-5.37,0.29-8.04,0.67"/>
	<path class="st6" d="M333.82,720.22c6.65,4.61,15.42,4.24,23.49,3.68c-1.36,0.86-2.72,1.72-4.08,2.57"/>
	<path class="st6" d="M335.2,726.48c-0.27,4-0.55,8-0.82,12"/>
	<path class="st6" d="M262.22,710.94c-2.8,1.78-5.84,3.18-9.01,4.16c-0.38-3.73-0.75-7.45-1.13-11.18
		c-1.18,1.84-4.38,1.74-5.44-0.17c-0.65,0.07-1.26,0.45-1.61,1c0.55-0.72,1.09-1.44,1.64-2.16c-1.85,0.29-3.65,0.87-5.32,1.71
		c0.17-0.95,0.33-1.89,0.5-2.84c-0.75-0.45-1.72-0.07-2.47,0.37c-0.76,0.44-1.59,0.97-2.44,0.78c-0.86-0.19-1.27-1.61-0.45-1.9
		c-0.87,0.67-1.93,1.11-3.02,1.24c0.28-1.38,0.56-2.75,0.85-4.12c-0.8,0.27-1.61,0.54-2.41,0.81c-1.6-1.85-2.07-4.61-1.18-6.89
		c-0.88,0.4-1.75,0.8-2.63,1.2c-0.1-1.19,0.57-2.41,1.62-2.96c-1.75,0.5-3.49,1.01-5.24,1.51c-0.4-1.1-0.49-2.3-0.26-3.44
		c-1.22,1.04-3.25,0.21-4.02-1.19c-0.77-1.41-0.64-3.11-0.49-4.7c-1.52,1.08-3.04,2.16-4.56,3.24c0.38-1.71,1.04-3.36,1.95-4.86
		c-0.49,0.4-0.98,0.8-1.47,1.2c-1.81-0.8-3.26-2.36-3.93-4.23c-0.68,0.27-1.37,0.53-2.05,0.8c-0.35-1.01-0.24-2.18,0.31-3.1
		c0.42,0.66-0.96,1.18-1.43,0.55c-0.47-0.63-0.26-1.51-0.2-2.29s-0.29-1.79-1.08-1.8c-0.42,0.78-1.05,1.46-1.79,1.95
		c-0.84-1.94-1.69-3.87-2.53-5.81"/>
	<path class="st6" d="M419.07,710.94c0.68,0.61,1.37,1.22,2.05,1.83c1.11-2.97,3.6-5.39,6.6-6.43c0.47,0.32,0.94,0.64,1.42,0.96
		c0.47-1.13,1.19-2.16,2.11-2.97c0.57,0.73,1.29,1.34,2.1,1.77c0.84-1.85,1.48-3.8,1.92-5.78c0.18,0.57,0.55,1.08,1.05,1.42
		c1.21-1.19,2.03-2.76,2.32-4.43c-0.08,0.5,0.24,1.04,0.71,1.22c0.56-0.51,1.12-1.03,1.68-1.54c-0.48,0.88,0.8,1.86,1.76,1.56
		s1.52-1.26,2.05-2.11c0.54-0.85,1.28-1.74,2.28-1.77c0.06-1.1,0.31-2.19,0.74-3.2c0.19,0.62,0.38,1.25,0.57,1.87
		c0.46-0.79,0.71-1.71,0.72-2.63c0.59,0.71,1.35,1.28,2.2,1.64c0.43-0.93,0.86-1.87,1.29-2.8c0.21-0.45,0.37,0.52-0.08,0.72
		c0.68-1.58,1.35-3.16,2.03-4.74c0.73-0.07,1.42-0.5,1.81-1.12c0.71,1.21,1.42,2.42,2.12,3.64c0.66-2.04,0.91-4.21,0.72-6.35
		c2.98-0.92,5.74-2.54,7.98-4.71"/>
	<path class="st6" d="M273.1,690.73c-3.89,2.49-8.11,4.49-12.5,5.92c-0.67-2.58-0.01-5.48,1.72-7.51c-0.77,0.52-1.82-0.5-1.7-1.42
		c0.12-0.92,0.91-1.6,1.64-2.18c-1.05,0.3-2.1,0.6-3.15,0.9c0-0.76,0.27-1.52,0.75-2.12c-2.5,0.19-4.95,0.9-7.17,2.07
		c-0.01-1.59,0.61-3.19,1.69-4.35c-0.88-0.21-1.85,0.03-2.53,0.62c0.57-1.17,1.15-2.33,1.72-3.5c-1.77,0.96-3.66,1.69-5.61,2.17
		c1.08-1.55,2.41-2.92,3.91-4.06c-1.46,1.15-3.3,1.82-5.15,1.89c-0.08-1.82,0.81-3.65,2.29-4.71c-1.23,0.43-2.46,0.85-3.69,1.28
		c-1-1.76-0.46-4.24,1.18-5.42c-0.92,0.31-1.84,0.62-2.75,0.93c-0.09-0.94-0.19-1.88-0.28-2.82c-1.04,1.24-2.93,1.67-4.4,1.01
		c1.15-2.02,2.95-3.67,5.07-4.63c-3.56,2.02-7.37,3.6-11.32,4.69c0.07-2.05,1.3-4.03,3.11-5c-1.05,0.63-2.1,1.27-3.15,1.9
		c1.17-1.73,2.35-3.46,3.52-5.19c-1.32,0.69-2.64,1.38-3.96,2.07c-0.08-0.66-0.17-1.31-0.25-1.97c-1.42,1.21-3.03,2.19-4.76,2.88
		c0.73-2.19,2.66-3.94,4.91-4.45c-1.31,0.73-2.61,1.45-3.92,2.18c-1.14-1.57-0.98-3.96,0.37-5.36c-1.58,0.34-3.16,0.68-4.73,1.01
		c-0.3-0.97-0.17-2.06,0.35-2.93c-0.35,0.75-0.96,1.38-1.7,1.75c-0.83-1.2-0.52-3.03,0.65-3.9c-0.99,0.47-1.97,0.94-2.96,1.42
		c0.29-0.59,0.59-1.25,0.42-1.88c-0.17-0.63-1.08-1.05-1.51-0.55c1.16-0.15,2.33-0.3,3.49-0.46"/>
	<path class="st6" d="M425.08,679.17c1.36,0.91,2.71,1.83,4.07,2.74c0.54-1.66,0.79-3.42,0.72-5.16c1.6-0.75,2.42-2.83,1.76-4.47
		c0.54,0.77,1.09,1.54,1.63,2.31c0.73-1.91,1.47-3.82,2.2-5.73c0.49,0.2,0.98,0.39,1.47,0.59c0.54-1.86,1.59-3.58,3-4.91
		c0.44,0.67,0.89,1.34,1.33,2.01c1.55-3.62,3.11-7.24,4.66-10.86c0.16-0.38,0.42-0.83,0.84-0.81s0.37,0.87,0,0.67
		c0.3-0.88,0.6-1.77,0.89-2.65c0.23,0.88,0.26,1.8,0.11,2.7c0.34-2.1,1.25-4.11,2.6-5.75c0.58,1.03,0.73,2.3,0.41,3.44
		c0.46-1.62,0.96-3.22,1.5-4.81c0.13-0.38,0.33-0.82,0.73-0.89c0.4-0.06,0.65,0.67,0.25,0.71c0.58-1.76,2.22-3.13,4.06-3.37
		c1-0.23,1.7-1.34,1.48-2.34"/>
	<path class="st6" d="M419.35,750.67c4.86-5.39,13.79-5.19,18.9-10.33c0.29,1.4,2.19,1.81,3.53,1.3s2.4-1.57,3.72-2.11
		c1.32-0.54,3.22-0.24,3.62,1.13c2.45-3.07,6.29-4.99,10.22-5.09c0.95-1.27,2.4-2.15,3.97-2.4c-0.17-2.14,2.09-4.11,4.19-3.65
		c0.19-2.18,0.1-4.39-0.26-6.55c3.71-0.43,7.42-0.85,11.14-1.28"/>
	<path class="st6" d="M502.14,830.21c1.08,1.51,2.16,3.02,3.23,4.53c-0.03-0.7-0.06-1.41-0.09-2.11c0.1,0.53,0.53,0.98,1.06,1.09
		c0.99-2.27,1.03-4.94,0.1-7.23c1.04,2.75,2.64,5.29,4.67,7.42c1.61-2.91,2.22-6.35,1.71-9.64c0.63,1.32,1.26,2.65,1.88,3.97
		c0.41,0.87,1.01,1.87,1.97,1.91c1.38,0.06,1.91-1.77,1.99-3.15c0.21-3.73,0.42-7.46,0.62-11.19c1.01-2.45,1.55-5.1,1.57-7.75
		c-0.51,1.03,1.34,1.87,2.19,1.1c0.85-0.78,0.81-2.1,0.7-3.25c0.66,0.63,1.46,1.12,2.32,1.44c0.23-1.04,1.61-1.64,2.53-1.09"/>
	<path class="st6" d="M205.24,862.32c-1.65,3.4-3.3,6.8-4.95,10.2c-0.33-3.2-0.66-6.4-0.98-9.6c-2.62,5.94-5.24,11.89-7.86,17.83
		c-1.72-3.54-2.92-7.34-3.53-11.24c-0.79,2.22-1.58,4.44-2.37,6.66c-0.67-4.37-1.35-8.75-2.02-13.12c-0.92,2.15-1.84,4.31-2.76,6.46
		c-1.01-3.03-2.01-6.07-3.02-9.1c-1.53,2.75-3.4,5.3-5.55,7.59c-0.71-3.68-1.42-7.35-2.14-11.03c-1.82,3.05-3.65,6.09-5.47,9.14
		c0.18-3.95-0.03-7.93-0.64-11.84c-1.18,2.47-2.35,4.94-3.53,7.41c-0.09-3.76-0.19-7.51-0.28-11.27c-1.51,2.37-3.01,4.75-4.52,7.12
		c-0.29-4.53-0.59-9.06-0.88-13.59c-3.13,4.65-6.27,9.29-9.4,13.94c-0.39-3.09-0.77-6.17-1.16-9.26c-2.22,4.07-4.44,8.14-6.66,12.22
		"/>
</g>
<g>
	<text transform="matrix(1 0 0 1.0001 693.0098 873.9629)" class="st8 st9">10 cm</text>
</g>
<g>
	<text transform="matrix(1 0 0 1.0001 1.9624 873.9629)" class="st8 st9">20 cm</text>
</g>
<g>
	<text transform="matrix(1 0 0 1 693.0098 750.1191)"><tspan x="0" y="0" class="st3 st4 st5">Human</tspan><tspan x="0" y="38.4" class="st3 st4 st5">tongue</tspan><tspan x="0" y="76.8" class="st3 st4 st5">about</tspan></text>
</g>
<g>
	<text transform="matrix(1 0 0 1 3.5762 750.4395)"><tspan x="0" y="0" class="st3 st4 st5">Tiger </tspan><tspan x="0" y="38.4" class="st3 st4 st5">tongue</tspan><tspan x="0" y="76.8" class="st3 st4 st5">about</tspan></text>
</g>
<g>
	<rect x="576.85" y="499.94" class="st2" width="180.04" height="117.56"/>
	<text transform="matrix(1 0 0 1 576.8477 523.9395)"><tspan x="0" y="0" class="st3 st4 st5">A tiger has </tspan><tspan x="0" y="38.4" class="st3 st4 st5">antiseptic </tspan><tspan x="0" y="76.8" class="st3 st4 st5">saliva. </tspan></text>
</g>
</svg>
